<?xml version="1.0" standalone="no"?><!DOCTYPE svg PUBLIC "-//W3C//DTD SVG 1.1//EN" "http://www.w3.org/Graphics/SVG/1.1/DTD/svg11.dtd"><svg t="1712808157775" class="icon" viewBox="0 0 1024 1024" version="1.1" xmlns="http://www.w3.org/2000/svg" p-id="6469" xmlns:xlink="http://www.w3.org/1999/xlink" width="200" height="200"><path d="M511.271613 0C254.827939 0 41.568551 189.300982 25.892064 430.659734a47.916811 47.916811 0 0 0 24.845754 45.254766l6.507221 3.253611 247.274408 274.190641a65.367995 65.367995 0 0 0-6.507222 29.578279l3.845177 183.976892a59.156557 59.156557 0 0 0 59.156556 57.086077h301.402658a59.156557 59.156557 0 0 0 59.156557-57.086077V782.641248a59.156557 59.156557 0 0 0-6.507221-27.803582l246.978625-276.556903A57.38186 57.38186 0 0 0 972.396974 473.252455a48.212594 48.212594 0 0 0 24.254188-45.846331C978.608413 187.526285 765.349025 0 511.271613 0z m-139.609474 792.106297h275.965338v157.652224h-275.965338z m254.96476-74.241479l68.03004-236.626228a184.272675 184.272675 0 0 1 120.087811-42.888503 192.850376 192.850376 0 0 1 68.917389 14.197573l-236.626228 266.204506z m77.790872-328.023108c1.774697-76.903524-6.507221-207.047949-69.213171-298.44483a395.461583 395.461583 0 0 1 281.585211 295.782785 270.345465 270.345465 0 0 0-212.37204 2.662045z m-308.797227 27.507799z m118.313114 22.775274a219.470826 219.470826 0 0 1 41.40959 4.436742l12.127094 2.957828a168.596187 168.596187 0 0 1 29.578279 11.239746c4.140959 1.774697 7.986135 4.140959 13.310225 7.098787l2.957828 1.774696 7.690352 5.028308-70.692085 245.203928h-72.171L406.86029 473.252455a187.230503 187.230503 0 0 1 107.664934-33.127672z m115.946852-46.142114l-31.352976-13.606008-8.281918-2.662045-23.958405-5.915656-10.943963-1.774697-31.057192-2.957827h-21.296361s-14.493356 0-29.578278 3.25361a346.657423 346.657423 0 0 0-36.0855 7.690353l-19.225881 6.803004a80.452917 80.452917 0 0 0-11.535529 5.028307l-11.535528 5.619873c-4.732525-82.523397 0-258.514154 118.313114-318.558059 109.143847 55.311381 118.904679 233.372617 117.129982 317.079145zM386.155495 91.692663C321.674848 183.976892 316.350758 312.050838 321.674848 388.067013a277.444252 277.444252 0 0 0-214.738301 0A393.982669 393.982669 0 0 1 386.155495 91.692663zM213.714132 440.124783a192.554593 192.554593 0 0 1 118.313114 39.930676l69.213171 236.626228h-29.578278l-236.626228-261.767764a198.174466 198.174466 0 0 1 78.678221-14.78914z" fill="#666A7B" p-id="6470"></path></svg>