<svg width="20" height="20" viewBox="0 0 20 20" fill="none" xmlns="http://www.w3.org/2000/svg">
<g id="Group 427320499">
<path id="Vector" d="M19.9988 6.24998L18.332 7.49997V5L19.9988 6.24998Z" fill="white"/>
<path id="Vector_2" d="M0 6.24998L1.66673 5V7.49997L0 6.24998Z" fill="white"/>
<path id="Vector_3" d="M8.33197 14.168H4.16552C3.70728 14.168 3.33203 14.543 3.33203 15.0012V19.1679C3.33203 19.6259 3.70728 20.0011 4.16552 20.0011H8.33197C8.79022 20.0011 9.16546 19.6259 9.16546 19.1679V15.0012C9.16546 14.543 8.79022 14.168 8.33197 14.168ZM7.49873 18.3344H4.99876V15.8344H7.49873V18.3344Z" fill="white"/>
<path id="Vector_4" d="M15.832 14.168H11.6655C11.2073 14.168 10.832 14.543 10.832 15.0012V19.1679C10.832 19.6259 11.2073 20.0011 11.6655 20.0011H15.832C16.2902 20.0011 16.6655 19.6259 16.6655 19.1679V15.0012C16.6655 14.543 16.2902 14.168 15.832 14.168ZM14.9987 18.3344H12.4988V15.8344H14.9987V18.3344Z" fill="white"/>
<path id="Exclude" fill-rule="evenodd" clip-rule="evenodd" d="M5.00267 0H15.0025C15.9188 0 16.6693 0.749991 16.6693 1.66673V10.8334C16.6693 11.7496 15.9188 12.4998 15.0025 12.4998H5.00267C4.08643 12.4998 3.33594 11.7496 3.33594 10.8334V1.66673C3.33594 0.749991 4.08643 0 5.00267 0ZM15.0025 1.75H5.0026V10.7499H15.0025V1.75Z" fill="white"/>
<path id="T" d="M9.53033 4.7857H8.25V4H11.75V4.7857H10.4696V8.24995H9.53033V4.7857Z" fill="white"/>
</g>
</svg>
