<svg width="64" height="64" viewBox="0 0 64 64" fill="none" xmlns="http://www.w3.org/2000/svg">
<g clip-path="url(#clip0_6798_921)">
<path d="M28.7995 47.3998C29.7995 47.3998 30.6995 48.1998 30.6995 49.2998C30.6995 50.2998 29.8995 51.1998 28.7995 51.1998C27.7995 51.1998 26.8995 50.3998 26.8995 49.2998C26.8995 48.1998 27.7995 47.3998 28.7995 47.3998ZM58.1995 35.7998C57.1995 35.7998 56.2995 34.9998 56.2995 33.8998C56.2995 32.8998 57.0995 31.9998 58.1995 31.9998C59.1995 31.9998 60.0995 32.7998 60.0995 33.8998C60.0995 34.8998 59.1995 35.7998 58.1995 35.7998ZM58.1995 28.0998C54.9995 28.0998 52.3995 30.6998 52.3995 33.8998C52.3995 34.4998 52.4995 35.0998 52.6995 35.6998L33.5995 45.8998C32.4995 44.2998 30.6995 43.3998 28.7995 43.3998C26.5995 43.3998 24.5995 44.6998 23.5995 46.5998L6.39949 37.5998C4.59949 36.5998 3.19949 33.6998 3.39949 30.8998C3.49949 29.4998 3.99949 28.3998 4.69949 27.9998C5.19949 27.6998 5.69949 27.7998 6.39949 28.0998L6.49949 28.1998C11.0995 30.5998 25.9995 38.3998 26.5995 38.6998C27.5995 39.0998 28.0995 39.2998 29.7995 38.4998L60.5995 22.4998C61.0995 22.2998 61.5995 21.8998 61.5995 21.1998C61.5995 20.2998 60.6995 19.8998 60.6995 19.8998C58.8995 19.0998 56.1995 17.7998 53.5995 16.5998C47.9995 13.9998 41.5995 10.9998 38.7995 9.49984C36.3995 8.19984 34.3995 9.29984 34.0995 9.49984L33.3995 9.79985C20.6995 16.1998 3.89949 24.4998 2.89949 25.0998C1.19949 26.0998 0.099489 28.1998 -0.000510985 30.7998C-0.200511 34.8998 1.89949 39.1998 4.89949 40.6998L23.0995 50.0998C23.4995 52.8998 25.9995 55.0998 28.7995 55.0998C31.9995 55.0998 34.4995 52.5998 34.5995 49.3998L54.5995 38.5998C55.5995 39.3998 56.8995 39.7998 58.1995 39.7998C61.3995 39.7998 63.9995 37.1998 63.9995 33.9998C63.9995 30.6998 61.3995 28.0998 58.1995 28.0998Z" fill="#357E7F"/>
</g>
<defs>
<clipPath id="clip0_6798_921">
<rect width="64" height="64" fill="white"/>
</clipPath>
</defs>
</svg>
