<svg width="36" height="36" viewBox="0 0 36 36" fill="none" xmlns="http://www.w3.org/2000/svg">
<g id="Group 1312320061">
<circle id="Ellipse 508" cx="18" cy="18" r="18" fill="#487C7E"/>
<g id="Group 1312320059">
<path id="Vector" d="M17.7979 26.4601C18.0576 26.4601 24.2202 26.4062 28.9326 21.6929C29.0324 21.5931 29.1296 21.4933 29.225 21.3917C30.2114 20.3496 30.6804 19.1114 30.5806 17.8105C30.4932 16.6633 29.965 15.5506 29.0925 14.678C28.2199 13.8055 27.1081 13.2774 25.96 13.1899C24.758 13.0981 23.609 13.492 22.619 14.3309C22.5122 13.038 21.9779 11.9473 21.0638 11.1622C20.1904 10.4124 19.0299 10 17.797 10C16.5642 10 15.4028 10.4124 14.5303 11.1622C13.6153 11.9473 13.0819 13.038 12.9742 14.3309C11.9842 13.492 10.8352 13.0981 9.63323 13.1899C8.48603 13.2774 7.37326 13.8055 6.5016 14.678C5.62905 15.5506 5.10093 16.6625 5.0135 17.8105C4.91458 19.1114 5.38353 20.3496 6.36912 21.3917C6.4645 21.4924 6.56253 21.5931 6.66145 21.6929C11.3757 26.4062 17.5374 26.4601 17.7979 26.4601Z" fill="white"/>
<path id="Vector_2" d="M18.4291 21.3149H19.1356C19.1356 20.2631 20.1592 19.4065 21.4177 19.4065C22.6762 19.4065 23.6997 20.2622 23.6997 21.3149H24.4062C24.4062 19.8737 23.0656 18.7 21.4177 18.7C19.7697 18.7 18.4291 19.8728 18.4291 21.3149Z" fill="#487C7E"/>
<path id="Vector_3" d="M20.6046 21.3299C20.0432 21.3299 19.5881 20.8748 19.5881 20.3134C19.5881 19.752 20.0432 19.2969 20.6046 19.2969C21.166 19.2969 21.6211 19.752 21.6211 20.3134C21.6211 20.8748 21.166 21.3299 20.6046 21.3299Z" fill="#487C7E"/>
<path id="Vector_4" d="M11.183 21.3149H11.8895C11.8895 20.2631 12.9131 19.4065 14.1716 19.4065C15.4301 19.4065 16.4536 20.2622 16.4536 21.3149H17.1602C17.1602 19.8737 15.8195 18.7 14.1716 18.7C12.5236 18.7 11.183 19.8728 11.183 21.3149Z" fill="#487C7E"/>
<path id="Vector_5" d="M13.3565 21.3299C12.7951 21.3299 12.34 20.8748 12.34 20.3134C12.34 19.752 12.7951 19.2969 13.3565 19.2969C13.9179 19.2969 14.373 19.752 14.373 20.3134C14.373 20.8748 13.9179 21.3299 13.3565 21.3299Z" fill="#487C7E"/>
<path id="Vector_6" d="M17.8104 23.9122C18.6432 23.9122 19.4151 23.4839 19.7754 22.8224L19.1545 22.4841C18.9152 22.9222 18.388 23.2057 17.8095 23.2057C17.231 23.2057 16.7038 22.9222 16.4645 22.4841L15.8445 22.8224C16.2057 23.4839 16.9776 23.9122 17.8104 23.9122Z" fill="#487C7E"/>
</g>
</g>
</svg>
