<svg width="135" height="40" viewBox="0 0 135 40" fill="none" xmlns="http://www.w3.org/2000/svg">
<path d="M51.2529 25.7403V17.9996H48.8566V16.7297H55.0289V17.9996H52.6689V25.7403H51.2529Z" fill="white"/>
<path d="M56.1733 28.4132C56.0119 28.4132 55.8506 28.3971 55.6892 28.3648C55.5359 28.3406 55.3947 28.3003 55.2656 28.2439V27.0707C55.3624 27.0949 55.4794 27.115 55.6166 27.1311C55.7538 27.1553 55.8869 27.1674 56.016 27.1674C56.3952 27.1674 56.6735 27.0828 56.8511 26.9134C57.0366 26.7522 57.202 26.4982 57.3473 26.1515L57.7829 25.1597L57.7587 26.3087L54.9267 19.197H56.3912L58.4849 24.6517H57.9887L60.0703 19.197H61.5468L58.6543 26.4538C58.501 26.8409 58.3074 27.1795 58.0734 27.4698C57.8475 27.7681 57.5772 27.9979 57.2625 28.1592C56.9559 28.3285 56.5929 28.4132 56.1733 28.4132Z" fill="white"/>
<path d="M62.5963 28.1592V19.197H63.9033V20.5516L63.746 20.2371C63.9881 19.8662 64.3108 19.576 64.7142 19.3663C65.1176 19.1567 65.5775 19.0519 66.0939 19.0519C66.7152 19.0519 67.2719 19.201 67.7641 19.4994C68.2643 19.7977 68.6556 20.2049 68.938 20.7209C69.2285 21.237 69.3737 21.8175 69.3737 22.4626C69.3737 23.1076 69.2285 23.6882 68.938 24.2042C68.6556 24.7203 68.2683 25.1315 67.7762 25.4379C67.284 25.7362 66.7232 25.8854 66.0939 25.8854C65.5856 25.8854 65.1217 25.7806 64.7021 25.5709C64.2906 25.3613 63.9719 25.0589 63.746 24.6638L63.9639 24.4098V28.1592H62.5963ZM65.9608 24.6154C66.3481 24.6154 66.691 24.5227 66.9895 24.3373C67.288 24.1518 67.522 23.8978 67.6914 23.5753C67.8689 23.2447 67.9577 22.8738 67.9577 22.4626C67.9577 22.0514 67.8689 21.6845 67.6914 21.362C67.522 21.0394 67.288 20.7854 66.9895 20.6C66.691 20.4145 66.3481 20.3218 65.9608 20.3218C65.5816 20.3218 65.2387 20.4145 64.9321 20.6C64.6335 20.7854 64.3955 21.0394 64.218 21.362C64.0486 21.6845 63.9639 22.0514 63.9639 22.4626C63.9639 22.8738 64.0486 23.2447 64.218 23.5753C64.3955 23.8978 64.6335 24.1518 64.9321 24.3373C65.2387 24.5227 65.5816 24.6154 65.9608 24.6154Z" fill="white"/>
<path d="M73.9763 25.8854C73.3469 25.8854 72.77 25.7362 72.2456 25.4379C71.7292 25.1395 71.3177 24.7324 71.0111 24.2163C70.7045 23.7003 70.5512 23.1157 70.5512 22.4626C70.5512 21.8014 70.7045 21.2168 71.0111 20.7088C71.3177 20.1928 71.7292 19.7896 72.2456 19.4994C72.762 19.201 73.3389 19.0519 73.9763 19.0519C74.6217 19.0519 75.1986 19.201 75.7069 19.4994C76.2233 19.7896 76.6308 20.1928 76.9293 20.7088C77.2359 21.2168 77.3892 21.8014 77.3892 22.4626C77.3892 23.1238 77.2359 23.7124 76.9293 24.2284C76.6227 24.7445 76.2112 25.1516 75.6948 25.45C75.1785 25.7403 74.6056 25.8854 73.9763 25.8854ZM73.9763 24.6154C74.3636 24.6154 74.7065 24.5227 75.005 24.3373C75.3035 24.1518 75.5375 23.8978 75.7069 23.5753C75.8844 23.2447 75.9732 22.8738 75.9732 22.4626C75.9732 22.0514 75.8844 21.6845 75.7069 21.362C75.5375 21.0394 75.3035 20.7854 75.005 20.6C74.7065 20.4145 74.3636 20.3218 73.9763 20.3218C73.5971 20.3218 73.2541 20.4145 72.9476 20.6C72.649 20.7854 72.411 21.0394 72.2335 21.362C72.0641 21.6845 71.9793 22.0514 71.9793 22.4626C71.9793 22.8738 72.0641 23.2447 72.2335 23.5753C72.411 23.8978 72.649 24.1518 72.9476 24.3373C73.2541 24.5227 73.5971 24.6154 73.9763 24.6154Z" fill="white"/>
<path d="M83.1947 25.8854C82.5573 25.8854 81.9643 25.7685 81.4157 25.5346C80.8751 25.3008 80.399 24.9783 79.9876 24.5671C79.5841 24.1478 79.2695 23.6559 79.0436 23.0915C78.8176 22.5271 78.7047 21.9062 78.7047 21.2289C78.7047 20.5597 78.8136 19.9428 79.0315 19.3784C79.2574 18.8059 79.572 18.3141 79.9755 17.9029C80.3789 17.4836 80.8509 17.161 81.3914 16.9353C81.932 16.7014 82.5251 16.5845 83.1705 16.5845C83.8079 16.5845 84.3768 16.6934 84.877 16.9111C85.3853 17.1288 85.8129 17.415 86.1599 17.7698C86.5068 18.1165 86.7569 18.4955 86.9102 18.9067L85.6395 19.5236C85.4539 19.0317 85.1473 18.6366 84.7197 18.3383C84.292 18.0319 83.7757 17.8787 83.1705 17.8787C82.5735 17.8787 82.045 18.0198 81.5851 18.302C81.1252 18.5842 80.7662 18.9753 80.508 19.4752C80.2578 19.9751 80.1328 20.5597 80.1328 21.2289C80.1328 21.8982 80.2619 22.4868 80.5201 22.9947C80.7863 23.4947 81.1494 23.8857 81.6093 24.1679C82.0692 24.4421 82.5977 24.5792 83.1947 24.5792C83.695 24.5792 84.1508 24.4784 84.5623 24.2768C84.9819 24.0671 85.3167 23.7769 85.5668 23.406C85.817 23.027 85.942 22.5876 85.942 22.0876V21.4708L86.5835 22.0514H83.1705V20.8419H87.358V21.6885C87.358 22.3497 87.2451 22.9423 87.0191 23.4664C86.7932 23.9825 86.4866 24.4219 86.0993 24.7848C85.7121 25.1476 85.2683 25.4218 84.7681 25.6072C84.2678 25.7927 83.7434 25.8854 83.1947 25.8854Z" fill="white"/>
<path d="M88.7964 25.7403V19.197H90.1035V20.5153L89.9825 20.3218C90.1277 19.8945 90.3617 19.5881 90.6844 19.4026C91.0072 19.2091 91.3944 19.1123 91.8463 19.1123H92.2457V20.3581H91.6768C91.225 20.3581 90.8579 20.4992 90.5755 20.7814C90.3012 21.0556 90.164 21.4507 90.164 21.9667V25.7403H88.7964Z" fill="white"/>
<path d="M95.2553 25.8854C94.8116 25.8854 94.4202 25.8088 94.0814 25.6556C93.7506 25.4943 93.4924 25.2766 93.3068 25.0025C93.1212 24.7203 93.0284 24.3897 93.0284 24.0107C93.0284 23.6559 93.1051 23.3374 93.2584 23.0552C93.4198 22.773 93.6658 22.5351 93.9967 22.3416C94.3275 22.1481 94.743 22.011 95.2432 21.9304L97.5185 21.5555V22.6319L95.5095 22.9827C95.1464 23.0472 94.8801 23.1641 94.7107 23.3334C94.5413 23.4947 94.4565 23.7043 94.4565 23.9623C94.4565 24.2123 94.5493 24.4179 94.7349 24.5792C94.9285 24.7324 95.1746 24.809 95.4732 24.809C95.8443 24.809 96.167 24.7283 96.4414 24.5671C96.7238 24.4058 96.9416 24.1921 97.0949 23.926C97.2482 23.6519 97.3248 23.3495 97.3248 23.0189V21.3378C97.3248 21.0152 97.2038 20.7532 96.9618 20.5516C96.7278 20.342 96.4131 20.2371 96.0178 20.2371C95.6547 20.2371 95.336 20.3339 95.0617 20.5274C94.7954 20.7129 94.5977 20.9548 94.4686 21.2531L93.331 20.6847C93.452 20.3621 93.6497 20.0799 93.924 19.838C94.1984 19.5881 94.5171 19.3945 94.8801 19.2575C95.2513 19.1204 95.6426 19.0519 96.0541 19.0519C96.5705 19.0519 97.0263 19.1486 97.4217 19.3421C97.8251 19.5357 98.1357 19.8058 98.3536 20.1525C98.5795 20.4911 98.6924 20.8862 98.6924 21.3378V25.7403H97.3854V24.555L97.6637 24.5913C97.5104 24.8573 97.3128 25.0871 97.0707 25.2807C96.8367 25.4742 96.5664 25.6233 96.2598 25.7282C95.9613 25.833 95.6265 25.8854 95.2553 25.8854Z" fill="white"/>
<path d="M100.405 28.1592V19.197H101.712V20.5516L101.555 20.2371C101.797 19.8662 102.119 19.576 102.523 19.3663C102.926 19.1567 103.386 19.0519 103.903 19.0519C104.524 19.0519 105.081 19.201 105.573 19.4994C106.073 19.7977 106.464 20.2049 106.747 20.7209C107.037 21.237 107.182 21.8175 107.182 22.4626C107.182 23.1076 107.037 23.6882 106.747 24.2042C106.464 24.7203 106.077 25.1315 105.585 25.4379C105.093 25.7362 104.532 25.8854 103.903 25.8854C103.394 25.8854 102.93 25.7806 102.511 25.5709C102.099 25.3613 101.781 25.0589 101.555 24.6638L101.773 24.4098V28.1592H100.405ZM103.769 24.6154C104.157 24.6154 104.5 24.5227 104.798 24.3373C105.097 24.1518 105.331 23.8978 105.5 23.5753C105.678 23.2447 105.766 22.8738 105.766 22.4626C105.766 22.0514 105.678 21.6845 105.5 21.362C105.331 21.0394 105.097 20.7854 104.798 20.6C104.5 20.4145 104.157 20.3218 103.769 20.3218C103.39 20.3218 103.047 20.4145 102.741 20.6C102.442 20.7854 102.204 21.0394 102.027 21.362C101.857 21.6845 101.773 22.0514 101.773 22.4626C101.773 22.8738 101.857 23.2447 102.027 23.5753C102.204 23.8978 102.442 24.1518 102.741 24.3373C103.047 24.5227 103.39 24.6154 103.769 24.6154Z" fill="white"/>
<path d="M108.626 25.7403V16.5845H109.994V20.479L109.776 20.3097C109.937 19.8985 110.195 19.5881 110.55 19.3784C110.905 19.1607 111.317 19.0519 111.785 19.0519C112.269 19.0519 112.697 19.1567 113.068 19.3663C113.439 19.576 113.729 19.8662 113.939 20.2371C114.149 20.6081 114.254 21.0314 114.254 21.5071V25.7403H112.898V21.882C112.898 21.5514 112.834 21.2733 112.705 21.0475C112.584 20.8137 112.414 20.6363 112.196 20.5153C111.979 20.3863 111.728 20.3218 111.446 20.3218C111.172 20.3218 110.922 20.3863 110.696 20.5153C110.478 20.6363 110.304 20.8137 110.175 21.0475C110.054 21.2813 109.994 21.5595 109.994 21.882V25.7403H108.626Z" fill="white"/>
<path d="M116.294 28.4132C116.132 28.4132 115.971 28.3971 115.81 28.3648C115.656 28.3406 115.515 28.3003 115.386 28.2439V27.0707C115.483 27.0949 115.6 27.115 115.737 27.1311C115.874 27.1553 116.007 27.1674 116.136 27.1674C116.516 27.1674 116.794 27.0828 116.971 26.9134C117.157 26.7522 117.322 26.4982 117.468 26.1515L117.903 25.1597L117.879 26.3087L115.047 19.197H116.512L118.605 24.6517H118.109L120.191 19.197H121.667L118.775 26.4538C118.621 26.8409 118.428 27.1795 118.194 27.4698C117.968 27.7681 117.698 27.9979 117.383 28.1592C117.076 28.3285 116.713 28.4132 116.294 28.4132Z" fill="white"/>
<path d="M124.28 25.7403L127.451 16.7297H129.218L132.389 25.7403H130.864L130.174 23.7204H126.507L125.805 25.7403H124.28ZM126.918 22.4505H129.738L128.141 17.7335H128.54L126.918 22.4505Z" fill="white"/>
<path d="M133.572 25.7403V16.7297H135V25.7403H133.572Z" fill="white"/>
<path d="M36.3078 0H3.03532C1.35896 0 0 1.35896 0 3.03532V36.3078C0 37.9842 1.35896 39.3431 3.03532 39.3431H36.3078C37.9842 39.3431 39.3431 37.9842 39.3431 36.3078V3.03532C39.3431 1.35896 37.9842 0 36.3078 0Z" fill="#FFE3AC"/>
<path d="M5.6581 22.4988H14.1144H17.0933H19.6725V8.48438H14.1144V16.9406H5.6581V22.4988Z" fill="#487C7E"/>
<path d="M33.6878 16.8434H25.2315H22.2525H19.6734V30.8578H25.2315V22.4015H33.6878V16.8434Z" fill="#FFF9F0"/>
</svg>
