<svg width="28" height="13" viewBox="0 0 28 13" fill="none" xmlns="http://www.w3.org/2000/svg">
  <path
    d="M21.3553 7.94189C17.9323 7.94189 15.1575 9.00151 15.1575 10.3093C15.1575 11.6171 15.1575 12.677 21.3553 12.677C27.5538 12.6767 27.5538 11.6168 27.5538 10.309C27.5538 9.00181 24.7787 7.94189 21.3553 7.94189Z"
    fill="white" />
  <path
    d="M21.3556 7.03995C23.2969 7.03995 24.8756 5.46065 24.8756 3.51997C24.8756 1.57868 23.2969 0 21.3556 0C19.4149 0 17.8359 1.57868 17.8359 3.51997C17.8362 5.46065 19.4152 7.03995 21.3556 7.03995Z"
    fill="white" />
  <path
    d="M6.19815 7.94189C2.77481 7.94189 0 9.00151 0 10.309C0 11.6165 0 12.6767 6.19815 12.6767C12.3966 12.6767 12.3966 11.6168 12.3966 10.309C12.3966 9.00181 9.62149 7.94189 6.19815 7.94189Z"
    fill="white" />
  <path
    d="M6.19838 7.03995C8.13967 7.03995 9.71805 5.46065 9.71805 3.51997C9.71805 1.57868 8.13936 0 6.19838 0C4.25739 0 2.67871 1.57868 2.67871 3.51997C2.67871 5.46065 4.2577 7.03995 6.19838 7.03995Z"
    fill="white" />
</svg>