<svg width="36" height="36" viewBox="0 0 36 36" fill="none" xmlns="http://www.w3.org/2000/svg">
<circle cx="18" cy="18" r="18" fill="#357E7F"/>
<path d="M21.9186 8C19.9044 8 18.2558 9.64855 18.2558 11.6628C18.2558 11.9775 18.3023 12.2789 18.3779 12.5708L13.9139 15.6156C13.2918 15.1284 12.5093 14.8372 11.6628 14.8372C9.64857 14.8372 8 16.4858 8 18.5C8 20.5142 9.64857 22.1628 11.6628 22.1628C12.5131 22.1628 13.2981 21.8679 13.9215 21.3768L18.3779 24.4215C18.3011 24.7156 18.2558 25.0199 18.2558 25.3372C18.2558 27.3514 19.9044 29 21.9186 29C23.9328 29 25.5814 27.3514 25.5814 25.3372C25.5814 23.323 23.9328 21.6744 21.9186 21.6744C20.7509 21.6744 19.7061 22.2279 19.0342 23.0861L14.8754 20.2551C15.1632 19.7327 15.3256 19.1354 15.3256 18.5C15.3256 17.8608 15.1588 17.2618 14.8677 16.7373L19.0342 13.9062C19.706 14.7672 20.7487 15.3256 21.9186 15.3256C23.9328 15.3256 25.5814 13.677 25.5814 11.6628C25.5814 9.64855 23.9328 8 21.9186 8ZM21.9186 9.46512C23.141 9.46512 24.1163 10.4404 24.1163 11.6628C24.1163 12.8852 23.141 13.8605 21.9186 13.8605C20.6962 13.8605 19.7209 12.8852 19.7209 11.6628C19.7209 10.4404 20.6962 9.46512 21.9186 9.46512ZM11.6628 16.3023C12.8852 16.3023 13.8605 17.2776 13.8605 18.5C13.8605 19.7224 12.8852 20.6977 11.6628 20.6977C10.4404 20.6977 9.46512 19.7224 9.46512 18.5C9.46512 17.2776 10.4404 16.3023 11.6628 16.3023ZM21.9186 23.1395C23.141 23.1395 24.1163 24.1148 24.1163 25.3372C24.1163 26.5596 23.141 27.5349 21.9186 27.5349C20.6962 27.5349 19.7209 26.5596 19.7209 25.3372C19.7209 24.1148 20.6962 23.1395 21.9186 23.1395Z" fill="white"/>
</svg>
