<svg width="1050" height="306" viewBox="0 0 1050 306" fill="none" xmlns="http://www.w3.org/2000/svg">
<path d="M398.638 200.211V140.006H380V130.129H428.006V140.006H409.651V200.211H398.638Z" fill="#121212"/>
<path d="M436.908 221C435.653 221 434.398 220.875 433.142 220.624C431.95 220.436 430.852 220.122 429.848 219.683V210.558C430.601 210.746 431.511 210.903 432.578 211.029C433.644 211.217 434.68 211.311 435.684 211.311C438.633 211.311 440.798 210.652 442.179 209.335C443.622 208.081 444.909 206.106 446.038 203.409L449.427 195.695L449.239 204.632L427.212 149.319H438.602L454.887 191.744H451.027L467.218 149.319H478.702L456.204 205.761C455.012 208.771 453.506 211.405 451.686 213.663C449.929 215.983 447.827 217.77 445.379 219.025C442.995 220.342 440.171 221 436.908 221Z" fill="#121212"/>
<path d="M486.864 219.025V149.319H497.03V159.855L495.806 157.409C497.689 154.524 500.199 152.267 503.336 150.636C506.474 149.005 510.051 148.19 514.067 148.19C518.899 148.19 523.229 149.35 527.057 151.671C530.948 153.991 533.992 157.158 536.188 161.172C538.447 165.185 539.577 169.701 539.577 174.718C539.577 179.735 538.447 184.25 536.188 188.264C533.992 192.277 530.979 195.476 527.151 197.859C523.323 200.179 518.962 201.339 514.067 201.339C510.114 201.339 506.506 200.524 503.242 198.894C500.042 197.263 497.563 194.911 495.806 191.838L497.5 189.863V219.025H486.864ZM513.032 191.462C516.044 191.462 518.711 190.741 521.033 189.299C523.355 187.856 525.175 185.881 526.493 183.372C527.873 180.801 528.563 177.916 528.563 174.718C528.563 171.519 527.873 168.666 526.493 166.157C525.175 163.649 523.355 161.673 521.033 160.231C518.711 158.789 516.044 158.067 513.032 158.067C510.082 158.067 507.415 158.789 505.031 160.231C502.709 161.673 500.858 163.649 499.477 166.157C498.159 168.666 497.5 171.519 497.5 174.718C497.5 177.916 498.159 180.801 499.477 183.372C500.858 185.881 502.709 187.856 505.031 189.299C507.415 190.741 510.082 191.462 513.032 191.462Z" fill="#121212"/>
<path d="M575.374 201.339C570.479 201.339 565.993 200.179 561.914 197.859C557.897 195.539 554.697 192.372 552.312 188.358C549.928 184.344 548.735 179.798 548.735 174.718C548.735 169.575 549.928 165.029 552.312 161.078C554.697 157.064 557.897 153.928 561.914 151.671C565.93 149.35 570.417 148.19 575.374 148.19C580.394 148.19 584.881 149.35 588.835 151.671C592.851 153.928 596.02 157.064 598.342 161.078C600.727 165.029 601.919 169.575 601.919 174.718C601.919 179.86 600.727 184.438 598.342 188.452C595.957 192.466 592.757 195.633 588.741 197.953C584.724 200.211 580.269 201.339 575.374 201.339ZM575.374 191.462C578.386 191.462 581.053 190.741 583.375 189.299C585.697 187.856 587.517 185.881 588.835 183.372C590.215 180.801 590.906 177.916 590.906 174.718C590.906 171.519 590.215 168.666 588.835 166.157C587.517 163.649 585.697 161.673 583.375 160.231C581.053 158.789 578.386 158.067 575.374 158.067C572.425 158.067 569.758 158.789 567.373 160.231C565.051 161.673 563.2 163.649 561.819 166.157C560.502 168.666 559.843 171.519 559.843 174.718C559.843 177.916 560.502 180.801 561.819 183.372C563.2 185.881 565.051 187.856 567.373 189.299C569.758 190.741 572.425 191.462 575.374 191.462Z" fill="#121212"/>
<path d="M647.073 201.339C642.115 201.339 637.503 200.43 633.236 198.611C629.031 196.793 625.329 194.284 622.128 191.086C618.991 187.825 616.543 183.999 614.786 179.609C613.029 175.22 612.15 170.391 612.15 165.123C612.15 159.918 612.998 155.12 614.692 150.73C616.449 146.277 618.896 142.452 622.034 139.254C625.172 135.993 628.843 133.484 633.047 131.728C637.252 129.909 641.864 129 646.885 129C651.842 129 656.266 129.847 660.157 131.54C664.11 133.233 667.436 135.459 670.135 138.219C672.833 140.915 674.779 143.863 675.971 147.061L666.087 151.859C664.644 148.033 662.259 144.96 658.933 142.64C655.607 140.257 651.591 139.065 646.885 139.065C642.241 139.065 638.13 140.163 634.553 142.358C630.977 144.553 628.184 147.594 626.176 151.483C624.231 155.371 623.258 159.918 623.258 165.123C623.258 170.328 624.262 174.906 626.27 178.857C628.341 182.745 631.165 185.787 634.742 187.982C638.319 190.114 642.429 191.18 647.073 191.18C650.964 191.18 654.509 190.396 657.71 188.828C660.973 187.198 663.577 184.94 665.522 182.055C667.468 179.108 668.44 175.69 668.44 171.802V167.004L673.429 171.519H646.885V162.112H679.454V168.697C679.454 173.84 678.575 178.449 676.818 182.526C675.061 186.539 672.676 189.957 669.664 192.779C666.652 195.601 663.2 197.733 659.31 199.176C655.419 200.618 651.34 201.339 647.073 201.339Z" fill="#121212"/>
<path d="M690.641 200.211V149.319H700.807V159.573L699.866 158.067C700.996 154.744 702.815 152.361 705.326 150.918C707.836 149.413 710.848 148.661 714.362 148.661H717.468V158.35H713.044C709.53 158.35 706.675 159.447 704.478 161.642C702.345 163.774 701.278 166.847 701.278 170.861V200.211H690.641Z" fill="#121212"/>
<path d="M740.877 201.339C737.425 201.339 734.382 200.744 731.746 199.552C729.173 198.298 727.165 196.605 725.722 194.472C724.278 192.277 723.557 189.706 723.557 186.759C723.557 183.999 724.153 181.522 725.345 179.327C726.6 177.132 728.514 175.282 731.087 173.777C733.66 172.272 736.892 171.206 740.783 170.579L758.479 167.663V176.035L742.853 178.763C740.029 179.264 737.959 180.174 736.641 181.491C735.323 182.745 734.664 184.376 734.664 186.382C734.664 188.327 735.386 189.926 736.829 191.18C738.335 192.372 740.249 192.967 742.571 192.967C745.458 192.967 747.968 192.34 750.101 191.086C752.298 189.832 753.992 188.17 755.184 186.1C756.377 183.968 756.973 181.616 756.973 179.045V165.969C756.973 163.461 756.032 161.423 754.149 159.855C752.329 158.224 749.882 157.409 746.807 157.409C743.983 157.409 741.504 158.162 739.371 159.667C737.3 161.109 735.762 162.99 734.758 165.311L725.91 160.89C726.851 158.381 728.389 156.186 730.522 154.305C732.656 152.361 735.135 150.855 737.959 149.789C740.845 148.723 743.889 148.19 747.089 148.19C751.105 148.19 754.651 148.943 757.726 150.448C760.864 151.953 763.28 154.054 764.974 156.751C766.731 159.384 767.61 162.457 767.61 165.969V200.211H757.444V190.992L759.609 191.274C758.416 193.344 756.879 195.131 754.996 196.636C753.176 198.141 751.074 199.301 748.689 200.117C746.368 200.932 743.763 201.339 740.877 201.339Z" fill="#121212"/>
<path d="M780.929 219.025V149.319H791.095V159.855L789.871 157.409C791.754 154.524 794.264 152.267 797.402 150.636C800.54 149.005 804.117 148.19 808.133 148.19C812.965 148.19 817.295 149.35 821.123 151.671C825.013 153.991 828.057 157.158 830.253 161.172C832.513 165.185 833.642 169.701 833.642 174.718C833.642 179.735 832.513 184.25 830.253 188.264C828.057 192.277 825.045 195.476 821.217 197.859C817.389 200.179 813.028 201.339 808.133 201.339C804.179 201.339 800.571 200.524 797.308 198.894C794.107 197.263 791.629 194.911 789.871 191.838L791.566 189.863V219.025H780.929ZM807.097 191.462C810.109 191.462 812.777 190.741 815.098 189.299C817.42 187.856 819.24 185.881 820.558 183.372C821.939 180.801 822.629 177.916 822.629 174.718C822.629 171.519 821.939 168.666 820.558 166.157C819.24 163.649 817.42 161.673 815.098 160.231C812.777 158.789 810.109 158.067 807.097 158.067C804.148 158.067 801.481 158.789 799.096 160.231C796.774 161.673 794.923 163.649 793.543 166.157C792.225 168.666 791.566 171.519 791.566 174.718C791.566 177.916 792.225 180.801 793.543 183.372C794.923 185.881 796.774 187.856 799.096 189.299C801.481 190.741 804.148 191.462 807.097 191.462Z" fill="#121212"/>
<path d="M844.872 200.211V129H855.508V159.29L853.814 157.973C855.069 154.775 857.077 152.361 859.838 150.73C862.599 149.037 865.8 148.19 869.44 148.19C873.205 148.19 876.531 149.005 879.417 150.636C882.304 152.267 884.563 154.524 886.195 157.409C887.826 160.294 888.642 163.586 888.642 167.286V200.211H878.1V170.202C878.1 167.631 877.597 165.468 876.593 163.712C875.652 161.893 874.334 160.513 872.64 159.573C870.946 158.569 869 158.067 866.804 158.067C864.67 158.067 862.725 158.569 860.968 159.573C859.273 160.513 857.924 161.893 856.92 163.712C855.979 165.53 855.508 167.694 855.508 170.202V200.211H844.872Z" fill="#121212"/>
<path d="M904.507 221C903.252 221 901.997 220.875 900.742 220.624C899.55 220.436 898.452 220.122 897.448 219.683V210.558C898.201 210.746 899.111 210.903 900.178 211.029C901.244 211.217 902.28 211.311 903.284 211.311C906.233 211.311 908.398 210.652 909.779 209.335C911.222 208.081 912.509 206.106 913.638 203.409L917.027 195.695L916.839 204.632L894.812 149.319H906.202L922.486 191.744H918.627L934.817 149.319H946.301L923.804 205.761C922.612 208.771 921.106 211.405 919.286 213.663C917.529 215.983 915.427 217.77 912.979 219.025C910.595 220.342 907.771 221 904.507 221Z" fill="#121212"/>
<path d="M966.623 200.211L991.285 130.129H1005.03L1029.69 200.211H1017.83L1012.46 184.501H983.943L978.484 200.211H966.623ZM987.144 174.624H1009.08L996.651 137.937H999.757L987.144 174.624Z" fill="#121212"/>
<path d="M1038.89 200.211V130.129H1050V200.211H1038.89Z" fill="#121212"/>
<path d="M282.392 0H23.6079C10.5696 0 0 10.5696 0 23.6079V282.392C0 295.43 10.5696 306 23.6079 306H282.392C295.43 306 306 295.43 306 282.392V23.6079C306 10.5696 295.43 0 282.392 0Z" fill="#FFE3AC"/>
<path d="M44 175H109.77H132.94H153V66H109.77V131.77H44V175Z" fill="#487C7E"/>
<path d="M262 131H196.23H173.06H153V240H196.23V174.23H262V131Z" fill="#FFF9F0"/>
</svg>
