<svg width="119" height="35" viewBox="0 0 119 35" fill="none" xmlns="http://www.w3.org/2000/svg">
<path d="M44.827 22.5202V15.7478H42.7305V14.6367H48.1307V15.7478H46.0659V22.5202H44.827Z" fill="white"/>
<path d="M49.132 24.8588C48.9908 24.8588 48.8496 24.8447 48.7084 24.8165C48.5743 24.7953 48.4508 24.7601 48.3378 24.7107V23.6842C48.4226 23.7054 48.5249 23.723 48.6449 23.7371C48.7649 23.7583 48.8814 23.7689 48.9943 23.7689C49.3261 23.7689 49.5697 23.6948 49.725 23.5467C49.8873 23.4056 50.032 23.1834 50.1591 22.88L50.5403 22.0123L50.5191 23.0176L48.0414 16.7954H49.3226L51.1544 21.5679H50.7203L52.5416 16.7954H53.8334L51.3027 23.1446C51.1686 23.4832 50.9991 23.7795 50.7944 24.0334C50.5968 24.2944 50.3603 24.4955 50.085 24.6366C49.8167 24.7847 49.4991 24.8588 49.132 24.8588Z" fill="white"/>
<path d="M54.7515 24.6366V16.7954H55.8951V17.9806L55.7575 17.7055C55.9692 17.381 56.2516 17.127 56.6045 16.9436C56.9575 16.7602 57.3599 16.6685 57.8117 16.6685C58.3552 16.6685 58.8423 16.799 59.2729 17.06C59.7106 17.321 60.0529 17.6773 60.3 18.1288C60.5541 18.5803 60.6812 19.0882 60.6812 19.6525C60.6812 20.2169 60.5541 20.7248 60.3 21.1763C60.0529 21.6278 59.7141 21.9876 59.2835 22.2557C58.8529 22.5167 58.3623 22.6472 57.8117 22.6472C57.3669 22.6472 56.961 22.5555 56.594 22.3721C56.2339 22.1887 55.9551 21.9241 55.7575 21.5784L55.948 21.3562V24.6366H54.7515ZM57.6952 21.5361C58.034 21.5361 58.334 21.455 58.5952 21.2927C58.8564 21.1305 59.0611 20.9083 59.2094 20.6261C59.3647 20.3368 59.4423 20.0123 59.4423 19.6525C59.4423 19.2928 59.3647 18.9718 59.2094 18.6896C59.0611 18.4074 58.8564 18.1852 58.5952 18.0229C58.334 17.8607 58.034 17.7796 57.6952 17.7796C57.3634 17.7796 57.0634 17.8607 56.7951 18.0229C56.534 18.1852 56.3257 18.4074 56.1704 18.6896C56.0222 18.9718 55.948 19.2928 55.948 19.6525C55.948 20.0123 56.0222 20.3368 56.1704 20.6261C56.3257 20.9083 56.534 21.1305 56.7951 21.2927C57.0634 21.455 57.3634 21.5361 57.6952 21.5361Z" fill="white"/>
<path d="M64.708 22.6472C64.1574 22.6472 63.6527 22.5167 63.1939 22.2557C62.7421 21.9947 62.3821 21.6384 62.1138 21.1869C61.8456 20.7354 61.7114 20.224 61.7114 19.6525C61.7114 19.0741 61.8456 18.5626 62.1138 18.1182C62.3821 17.6667 62.7421 17.314 63.1939 17.06C63.6456 16.799 64.1504 16.6685 64.708 16.6685C65.2728 16.6685 65.7775 16.799 66.2222 17.06C66.674 17.314 67.0305 17.6667 67.2917 18.1182C67.5599 18.5626 67.6941 19.0741 67.6941 19.6525C67.6941 20.231 67.5599 20.746 67.2917 21.1975C67.0234 21.649 66.6634 22.0052 66.2116 22.2663C65.7599 22.5202 65.2587 22.6472 64.708 22.6472ZM64.708 21.5361C65.0469 21.5361 65.3469 21.455 65.6081 21.2927C65.8693 21.1305 66.074 20.9083 66.2222 20.6261C66.3775 20.3368 66.4552 20.0123 66.4552 19.6525C66.4552 19.2928 66.3775 18.9718 66.2222 18.6896C66.074 18.4074 65.8693 18.1852 65.6081 18.0229C65.3469 17.8607 65.0469 17.7796 64.708 17.7796C64.3763 17.7796 64.0763 17.8607 63.808 18.0229C63.5468 18.1852 63.3386 18.4074 63.1833 18.6896C63.035 18.9718 62.9609 19.2928 62.9609 19.6525C62.9609 20.0123 63.035 20.3368 63.1833 20.6261C63.3386 20.9083 63.5468 21.1305 63.808 21.2927C64.0763 21.455 64.3763 21.5361 64.708 21.5361Z" fill="white"/>
<path d="M72.7734 22.6472C72.2157 22.6472 71.6969 22.5449 71.2169 22.3403C70.7439 22.1358 70.3274 21.8536 69.9674 21.4938C69.6144 21.1269 69.3391 20.6966 69.1415 20.2028C68.9438 19.709 68.845 19.1658 68.845 18.5732C68.845 17.9877 68.9403 17.448 69.1309 16.9542C69.3285 16.4533 69.6039 16.023 69.9568 15.6632C70.3098 15.2963 70.7227 15.0142 71.1957 14.8166C71.6686 14.6121 72.1875 14.5098 72.7522 14.5098C73.3099 14.5098 73.8076 14.605 74.2452 14.7955C74.69 14.9859 75.0641 15.2364 75.3676 15.5468C75.6712 15.8501 75.89 16.1817 76.0241 16.5415L74.9123 17.0812C74.75 16.6508 74.4817 16.3052 74.1076 16.0441C73.7334 15.7761 73.2817 15.642 72.7522 15.642C72.2298 15.642 71.7675 15.7655 71.3651 16.0124C70.9627 16.2593 70.6486 16.6014 70.4227 17.0388C70.2039 17.4762 70.0945 17.9877 70.0945 18.5732C70.0945 19.1587 70.2074 19.6737 70.4333 20.1181C70.6662 20.5555 70.9839 20.8977 71.3863 21.1446C71.7886 21.3844 72.251 21.5044 72.7734 21.5044C73.2111 21.5044 73.6099 21.4162 73.9699 21.2398C74.337 21.0564 74.6299 20.8024 74.8488 20.4779C75.0676 20.1464 75.177 19.7619 75.177 19.3245V18.7848L75.7382 19.2928H72.7522V18.2346H76.4159V18.9753C76.4159 19.5538 76.3171 20.0723 76.1194 20.5308C75.9218 20.9823 75.6535 21.3668 75.3147 21.6843C74.9758 22.0017 74.5876 22.2416 74.1499 22.4038C73.7123 22.5661 73.2534 22.6472 72.7734 22.6472Z" fill="white"/>
<path d="M77.6744 22.5202V16.7954H78.818V17.9489L78.7121 17.7796C78.8391 17.4057 79.0439 17.1376 79.3262 16.9753C79.6086 16.806 79.9474 16.7214 80.3427 16.7214H80.6922V17.8113H80.1945C79.7992 17.8113 79.478 17.9348 79.2309 18.1817C78.9909 18.4215 78.8709 18.7672 78.8709 19.2187V22.5202H77.6744Z" fill="white"/>
<path d="M83.3254 22.6472C82.9371 22.6472 82.5947 22.5802 82.2983 22.4462C82.0088 22.3051 81.7829 22.1146 81.6206 21.8747C81.4582 21.6278 81.377 21.3386 81.377 21.007C81.377 20.6966 81.4441 20.418 81.5782 20.1711C81.7194 19.9241 81.9347 19.716 82.2241 19.5467C82.5136 19.3774 82.8771 19.2575 83.3148 19.1869L85.3054 18.8589V19.8007L83.5477 20.1076C83.2301 20.164 82.9971 20.2663 82.8489 20.4144C82.7006 20.5555 82.6265 20.7389 82.6265 20.9647C82.6265 21.1834 82.7077 21.3633 82.87 21.5044C83.0395 21.6384 83.2548 21.7054 83.516 21.7054C83.8407 21.7054 84.123 21.6349 84.3631 21.4938C84.6101 21.3527 84.8007 21.1657 84.9348 20.9329C85.069 20.6931 85.136 20.4285 85.136 20.1393V18.6684C85.136 18.3862 85.0301 18.157 84.8184 17.9806C84.6137 17.7972 84.3383 17.7055 83.9924 17.7055C83.6748 17.7055 83.396 17.7901 83.1559 17.9594C82.923 18.1217 82.75 18.3333 82.6371 18.5944L81.6418 18.097C81.7476 17.8148 81.9206 17.5679 82.1606 17.3563C82.4006 17.1376 82.6795 16.9683 82.9971 16.8484C83.3218 16.7284 83.6642 16.6685 84.0242 16.6685C84.476 16.6685 84.8748 16.7531 85.2207 16.9224C85.5737 17.0917 85.8455 17.3281 86.0361 17.6314C86.2337 17.9277 86.3325 18.2734 86.3325 18.6684V22.5202H85.189V21.4832L85.4325 21.515C85.2984 21.7478 85.1254 21.9488 84.9137 22.1181C84.709 22.2874 84.4725 22.4179 84.2042 22.5096C83.943 22.6014 83.6501 22.6472 83.3254 22.6472Z" fill="white"/>
<path d="M87.8308 24.6366V16.7954H88.9744V17.9806L88.8368 17.7055C89.0485 17.381 89.3309 17.127 89.6839 16.9436C90.0368 16.7602 90.4392 16.6685 90.891 16.6685C91.4345 16.6685 91.9216 16.799 92.3522 17.06C92.7899 17.321 93.1323 17.6773 93.3793 18.1288C93.6335 18.5803 93.7605 19.0882 93.7605 19.6525C93.7605 20.2169 93.6335 20.7248 93.3793 21.1763C93.1323 21.6278 92.7934 21.9876 92.3628 22.2557C91.9322 22.5167 91.4416 22.6472 90.891 22.6472C90.4463 22.6472 90.0404 22.5555 89.6733 22.3721C89.3133 22.1887 89.0344 21.9241 88.8368 21.5784L89.0274 21.3562V24.6366H87.8308ZM90.7745 21.5361C91.1133 21.5361 91.4134 21.455 91.6745 21.2927C91.9357 21.1305 92.1404 20.9083 92.2887 20.6261C92.444 20.3368 92.5216 20.0123 92.5216 19.6525C92.5216 19.2928 92.444 18.9718 92.2887 18.6896C92.1404 18.4074 91.9357 18.1852 91.6745 18.0229C91.4134 17.8607 91.1133 17.7796 90.7745 17.7796C90.4427 17.7796 90.1427 17.8607 89.8745 18.0229C89.6133 18.1852 89.405 18.4074 89.2497 18.6896C89.1015 18.9718 89.0274 19.2928 89.0274 19.6525C89.0274 20.0123 89.1015 20.3368 89.2497 20.6261C89.405 20.9083 89.6133 21.1305 89.8745 21.2927C90.1427 21.455 90.4427 21.5361 90.7745 21.5361Z" fill="white"/>
<path d="M95.0237 22.5202V14.5098H96.2202V17.9171L96.0296 17.769C96.1708 17.4092 96.3967 17.1376 96.7073 16.9542C97.0179 16.7637 97.3779 16.6685 97.7874 16.6685C98.2109 16.6685 98.585 16.7602 98.9098 16.9436C99.2345 17.127 99.4886 17.381 99.6721 17.7055C99.8557 18.03 99.9475 18.4004 99.9475 18.8166V22.5202H98.7615V19.1446C98.7615 18.8554 98.705 18.612 98.5921 18.4145C98.4862 18.2099 98.338 18.0547 98.1474 17.9489C97.9568 17.836 97.7379 17.7796 97.4909 17.7796C97.2509 17.7796 97.032 17.836 96.8344 17.9489C96.6438 18.0547 96.492 18.2099 96.3791 18.4145C96.2732 18.6191 96.2202 18.8624 96.2202 19.1446V22.5202H95.0237Z" fill="white"/>
<path d="M101.732 24.8588C101.591 24.8588 101.45 24.8447 101.309 24.8165C101.174 24.7953 101.051 24.7601 100.938 24.7107V23.6842C101.023 23.7054 101.125 23.723 101.245 23.7371C101.365 23.7583 101.482 23.7689 101.594 23.7689C101.926 23.7689 102.17 23.6948 102.325 23.5467C102.487 23.4056 102.632 23.1834 102.759 22.88L103.14 22.0123L103.119 23.0176L100.642 16.7954H101.923L103.755 21.5679H103.32L105.142 16.7954H106.434L103.903 23.1446C103.769 23.4832 103.599 23.7795 103.395 24.0334C103.197 24.2944 102.96 24.4955 102.685 24.6366C102.417 24.7847 102.099 24.8588 101.732 24.8588Z" fill="white"/>
<path d="M108.72 22.5202L111.494 14.6367H113.04L115.814 22.5202H114.48L113.876 20.7531H110.668L110.054 22.5202H108.72ZM111.028 19.642H113.495L112.097 15.515H112.447L111.028 19.642Z" fill="white"/>
<path d="M116.849 22.5202V14.6367H118.099V22.5202H116.849Z" fill="white"/>
<path d="M31.7662 0H2.65564C1.18897 0 0 1.18897 0 2.65564V31.7662C0 33.2329 1.18897 34.4218 2.65564 34.4218H31.7662C33.2329 34.4218 34.4218 33.2329 34.4218 31.7662V2.65564C34.4218 1.18897 33.2329 0 31.7662 0Z" fill="#FFE3AC"/>
<path d="M4.94922 19.6852H12.3477H14.954H17.2106V7.42383H12.3477V14.8223H4.94922V19.6852Z" fill="#487C7E"/>
<path d="M29.4733 14.7363H22.0748H19.4685H17.2119V26.9977H22.0748V19.5992H29.4733V14.7363Z" fill="#FFF9F0"/>
</svg>
