<svg width="122" height="46" viewBox="0 0 122 46" fill="none" xmlns="http://www.w3.org/2000/svg">
  <g clipPath="url(#clip0_10857_5992)">
    <path
      d="M42.451 0H3.5489C1.5889 0 0 1.58889 0 3.5489V42.4511C0 44.4111 1.5889 46 3.5489 46H42.451C44.411 46 46 44.4111 46 42.4511V3.5489C46 1.58889 44.411 0 42.451 0Z"
      fill="#FFE3AC" />
    <path d="M6.61426 26.3056H16.5013H19.9843H22.9999V9.91992H16.5013V19.807H6.61426V26.3056Z"
      fill="#487C7E" />
    <path d="M39.3875 19.6929H29.5005H26.0175H23.002V36.0785H29.5005V26.1914H39.3875V19.6929Z"
      fill="#FFF9F0" />
    <path
      d="M56 19.5115V18H65.0055V19.5115H61.375V29.6365H59.625V19.5115H56ZM66.9335 32.909C66.6795 32.909 66.4485 32.8885 66.24 32.8465C66.0315 32.809 65.8765 32.767 65.774 32.7215L66.1835 31.3295C66.494 31.413 66.7705 31.449 67.013 31.4375C67.255 31.4265 67.469 31.3355 67.655 31.165C67.844 30.9945 68.011 30.716 68.155 30.3295L68.365 29.75L65.172 20.909H66.99L69.2005 27.682H69.291L71.5015 20.909H73.3255L69.7285 30.8015C69.562 31.256 69.35 31.6405 69.0925 31.9545C68.835 32.273 68.528 32.5115 68.172 32.6705C67.816 32.8295 67.403 32.909 66.9335 32.909ZM74.922 32.909V20.909H76.581V22.324H76.723C76.8215 22.142 76.9635 21.932 77.149 21.6935C77.335 21.4545 77.5925 21.2465 77.922 21.0685C78.2515 20.8865 78.687 20.7955 79.2285 20.7955C79.9335 20.7955 80.562 20.9735 81.115 21.3295C81.668 21.6855 82.102 22.199 82.416 22.8695C82.7345 23.54 82.8935 24.3465 82.8935 25.29C82.8935 26.233 82.7365 27.042 82.422 27.716C82.1075 28.3865 81.6755 28.9035 81.1265 29.267C80.577 29.627 79.9505 29.807 79.246 29.807C78.7155 29.807 78.2815 29.718 77.9445 29.54C77.6115 29.362 77.35 29.1535 77.1605 28.915C76.971 28.6765 76.8255 28.464 76.723 28.2785H76.621V32.909H74.922ZM76.5865 25.273C76.5865 25.8865 76.6755 26.4245 76.8535 26.8865C77.0315 27.3485 77.2895 27.7105 77.6265 27.9715C77.9635 28.2295 78.3765 28.358 78.865 28.358C79.3725 28.358 79.797 28.2235 80.138 27.9545C80.4785 27.682 80.7365 27.3125 80.9105 26.8465C81.0885 26.381 81.1775 25.856 81.1775 25.273C81.1775 24.697 81.0905 24.18 80.916 23.7215C80.746 23.2635 80.488 22.9015 80.1435 22.6365C79.8025 22.3715 79.3765 22.239 78.865 22.239C78.3725 22.239 77.956 22.3655 77.615 22.6195C77.278 22.873 77.0225 23.2275 76.848 23.682C76.674 24.1365 76.5865 24.667 76.5865 25.273ZM88.473 29.8125C87.655 29.8125 86.941 29.625 86.331 29.25C85.721 28.875 85.2475 28.3505 84.9105 27.6765C84.5735 27.002 84.405 26.214 84.405 25.3125C84.405 24.4075 84.5735 23.6155 84.9105 22.9375C85.2475 22.2595 85.721 21.733 86.331 21.358C86.941 20.983 87.655 20.7955 88.473 20.7955C89.291 20.7955 90.005 20.983 90.615 21.358C91.225 21.733 91.6985 22.2595 92.0355 22.9375C92.3725 23.6155 92.541 24.4075 92.541 25.3125C92.541 26.214 92.3725 27.002 92.0355 27.6765C91.6985 28.3505 91.225 28.875 90.615 29.25C90.005 29.625 89.291 29.8125 88.473 29.8125ZM88.4785 28.3865C89.009 28.3865 89.4485 28.2465 89.797 27.966C90.1455 27.6855 90.403 27.3125 90.5695 26.8465C90.74 26.381 90.8255 25.8675 90.8255 25.307C90.8255 24.75 90.74 24.239 90.5695 23.773C90.403 23.303 90.1455 22.9265 89.797 22.642C89.4485 22.358 89.009 22.216 88.4785 22.216C87.9445 22.216 87.5015 22.358 87.149 22.642C86.8005 22.9265 86.541 23.303 86.371 23.773C86.204 24.239 86.121 24.75 86.121 25.307C86.121 25.8675 86.204 26.381 86.371 26.8465C86.541 27.3125 86.8005 27.6855 87.149 27.966C87.5015 28.2465 87.9445 28.3865 88.4785 28.3865ZM95.3425 18L98.1265 22.5515H98.2175L101.002 18H103.035L99.4105 23.8185L103.059 29.6365H101.013L98.2175 25.148H98.1265L95.331 29.6365H93.2855L96.996 23.8185L93.3085 18H95.3425ZM109.994 29.6365H108.131L112.318 18H114.346L118.534 29.6365H116.671L113.381 20.114H113.29L109.994 29.6365ZM110.307 25.0795H116.353V26.557H110.307V25.0795ZM121.97 18V29.6365H120.215V18H121.97Z"
      fill="white" />
  </g>
  <defs>
    <clipPath id="clip0_10857_5992">
      <rect width="122" height="46" fill="white" />
    </clipPath>
  </defs>
</svg>