<svg data-v-0dd9719b="" version="1.0" xmlns="http://www.w3.org/2000/svg"
  xmlns:xlink="http://www.w3.org/1999/xlink" width="100%" height="100%"
  viewBox="0 0 340.000000 250.000000" preserveAspectRatio="xMidYMid meet"
  color-interpolation-filters="sRGB" style="margin: auto;">
  <rect data-v-0dd9719b="" x="0" y="0" width="100%" height="100%" fill="#fff" fill-opacity="0"
    class="background"></rect>
  <rect data-v-0dd9719b="" x="0" y="0" width="100%" height="100%" fill="url(#watermark)"
    fill-opacity="1" class="watermarklayer"></rect>
  <g data-v-0dd9719b="" class="iconmbgsvg" transform="translate(88.75,43.75)">
    <g fill="#000000" hollow-target="textFill" mask="url(#610fa7cf-733d-4020-afda-3d7d7aa88524)">
      <g opacity="1" transform="matrix(1,0,0,1,0,0)">
        <g>
          <rect fill="#000000" fill-opacity="0" stroke-width="2" x="0" y="0" width="162.5"
            height="162.5" class="image-rect"></rect>
          <svg x="0" y="0" width="162.5" height="162.5" filtersec="colorsb6923523129"
            class="image-svg-svg primary" style="overflow: visible;">
            <svg fill="#000000" xmlns="http://www.w3.org/2000/svg"
              xmlns:xlink="http://www.w3.org/1999/xlink" version="1.1" x="0px" y="0px"
              viewBox="2.5 2.5 95 95" enable-background="new 0 0 100 100" xml:space="preserve"><g><path d="M50,6.5C26.014,6.5,6.5,26.014,6.5,50c0,23.986,19.514,43.5,43.5,43.5c23.986,0,43.5-19.514,43.5-43.5   C93.5,26.014,73.986,6.5,50,6.5z"></path><path d="M50,2.5C23.767,2.5,2.5,23.767,2.5,50S23.767,97.5,50,97.5S97.5,76.233,97.5,50S76.233,2.5,50,2.5z M50,95.5   C24.911,95.5,4.5,75.089,4.5,50S24.911,4.5,50,4.5S95.5,24.911,95.5,50S75.089,95.5,50,95.5z"></path></g></svg>
          </svg> <!---->
        </g>
      </g>
      <g transform="translate(36.57500076293945,55.48843765258789)">
        <g data-gra="path-name" fill-rule="" class="tp-name" transform="matrix(1,0,0,1,0,0)"
          opacity="1">
          <g transform="scale(1)">
            <g>
              <path
                d="M15.65 0Q15.95 0 16.18-0.23 16.4-0.45 16.4-0.75L16.4-0.75 16.4-30.85 25.2-30.85Q25.5-30.85 25.73-31.08 25.95-31.3 25.95-31.6L25.95-31.6 25.95-35 2-35 2-30.85 11.5-30.85 11.5 0 15.65 0ZM55.3-10.95Q54.15-7.85 51.28-5.68 48.4-3.5 45.05-3.5L45.05-3.5Q41.25-3.5 38.78-5.55 36.3-7.6 35.45-10.73 34.6-13.85 34.6-17.3L34.6-17.3Q34.6-21 35.63-24.08 36.65-27.15 39.1-29 41.55-30.85 44.9-30.85L44.9-30.85Q48.35-30.85 50.95-29.05 53.55-27.25 54.7-24.75L54.7-24.75 58.6-25.75Q56.45-30.35 53.18-32.5 49.9-34.65 44.45-34.65L44.45-34.65Q39.95-34.65 36.55-32.3 33.15-29.95 31.3-25.93 29.45-21.9 29.45-17L29.45-17Q29.45-12.15 31.25-8.22 33.05-4.3 36.65-1.98 40.25 0.35 45.4 0.35L45.4 0.35Q50.55 0.35 54.1-2.33 57.65-5 59.15-9.95L59.15-9.95 55.3-10.95ZM87.5-10.95Q86.35-7.85 83.48-5.68 80.6-3.5 77.25-3.5L77.25-3.5Q73.45-3.5 70.98-5.55 68.5-7.6 67.65-10.73 66.8-13.85 66.8-17.3L66.8-17.3Q66.8-21 67.83-24.08 68.85-27.15 71.3-29 73.75-30.85 77.1-30.85L77.1-30.85Q80.55-30.85 83.15-29.05 85.75-27.25 86.9-24.75L86.9-24.75 90.8-25.75Q88.65-30.35 85.38-32.5 82.1-34.65 76.65-34.65L76.65-34.65Q72.15-34.65 68.75-32.3 65.35-29.95 63.5-25.93 61.65-21.9 61.65-17L61.65-17Q61.65-12.15 63.45-8.22 65.25-4.3 68.85-1.98 72.45 0.35 77.6 0.35L77.6 0.35Q82.75 0.35 86.3-2.33 89.85-5 91.35-9.95L91.35-9.95 87.5-10.95Z"
                transform="translate(-2, 35)"></path>
            </g> <!----> <!----> <!----> <!----> <!----> <!----> <!---->
          </g>
        </g>
        <g data-gra="path-slogan" fill-rule="" class="tp-slogan" fill="#333333"
          transform="matrix(1,0,0,1,6.338420867919922,42.349998474121094)" opacity="1">
          <rect width="0"></rect>
          <rect x="79.67315673828125" width="0"></rect>
          <g transform="translate(0,0)">
            <g transform="scale(1)">
              <path
                d="M11.36-9.65L11.36-9.65L9.65-9.65Q9.50-12.25 6.23-12.39L6.23-12.39Q3.19-12.32 3.19-10.02L3.19-10.02Q3.19-8.54 4.82-8.31L4.82-8.31L8.68-7.42Q11.73-6.68 11.73-3.71L11.73-3.71Q11.65 0.07 6.38 0.22L6.38 0.22Q3.49 0.22 2.30-0.96L2.30-0.96Q0.82-2.08 0.89-4.38L0.89-4.38L2.67-4.38Q2.75-1.26 6.38-1.19L6.38-1.19Q9.95-1.26 10.02-3.49L10.02-3.49Q10.32-5.34 7.05-5.94L7.05-5.94L4.23-6.53Q1.34-7.35 1.34-9.80L1.34-9.80Q1.56-13.80 6.09-13.95L6.09-13.95Q11.21-13.95 11.36-9.65ZM14.03-13.58L15.88-13.58L15.88-1.63L22.79-1.63L22.79 0L14.03 0L14.03-13.58ZM35.33-6.75L35.33-6.75Q35.03-12.10 30.58-12.39L30.58-12.39Q26.05-12.17 25.83-6.75L25.83-6.75Q26.05-1.48 30.58-1.26L30.58-1.26Q35.03-1.56 35.33-6.75ZM37.18-6.75L37.18-6.75Q36.74 0 30.58 0.22L30.58 0.22Q24.34 0 23.90-6.75L23.90-6.75Q24.27-13.80 30.58-13.95L30.58-13.95Q36.74-13.73 37.18-6.75ZM49.50-5.71L45.35-5.71L45.35-7.27L51.29-7.27L51.29 0L50.10 0L49.65-1.71Q48.09 0.15 45.20 0.22L45.20 0.22Q42.45 0.22 40.97-1.19L40.97-1.19Q38.74-3.27 38.82-6.90L38.82-6.90Q39.34-13.66 45.27-13.95L45.27-13.95Q50.32-13.66 51.06-9.50L51.06-9.50L49.28-9.50Q48.54-12.32 45.20-12.39L45.20-12.39Q40.97-12.10 40.75-6.83L40.75-6.83Q40.75-1.19 45.27-1.19L45.27-1.19Q46.91-1.19 48.09-2.08L48.09-2.08Q49.58-3.27 49.50-5.71L49.50-5.71ZM63.09 0L61.75-3.93L56.26-3.93L54.85 0L52.99 0L58.11-13.58L60.19-13.58L65.09 0L63.09 0ZM59.00-11.58L56.85-5.57L61.08-5.57L59.08-11.58L59.00-11.58ZM68.95-13.58L75.78-2.60L75.78-13.58L77.56-13.58L77.56 0L75.48 0L68.58-10.98L68.50-10.98L68.50 0L66.72 0L66.72-13.58L68.95-13.58Z"
                transform="translate(-0.890625, 13.953125)"></path>
            </g>
          </g>
        </g>
      </g>
    </g>
  </g>
  <mask id="610fa7cf-733d-4020-afda-3d7d7aa88524">
    <g fill="white">
      <g>
        <rect fill-opacity="0" stroke-width="2" x="0" y="0" width="162.5" height="162.5"
          class="image-rect"></rect>
        <svg x="0" y="0" width="162.5" height="162.5" filtersec="colorsb6923523129"
          class="image-svg-svg primary" style="overflow: visible;">
          <svg xmlns="http://www.w3.org/2000/svg" xmlns:xlink="http://www.w3.org/1999/xlink"
            version="1.1" x="0px" y="0px" viewBox="2.5 2.5 95 95"
            enable-background="new 0 0 100 100" xml:space="preserve"><g><path d="M50,6.5C26.014,6.5,6.5,26.014,6.5,50c0,23.986,19.514,43.5,43.5,43.5c23.986,0,43.5-19.514,43.5-43.5   C93.5,26.014,73.986,6.5,50,6.5z"></path><path d="M50,2.5C23.767,2.5,2.5,23.767,2.5,50S23.767,97.5,50,97.5S97.5,76.233,97.5,50S76.233,2.5,50,2.5z M50,95.5   C24.911,95.5,4.5,75.089,4.5,50S24.911,4.5,50,4.5S95.5,24.911,95.5,50S75.089,95.5,50,95.5z"></path></g></svg>
        </svg>
      </g>
    </g>
    <g transform="translate(36.57500076293945,55.48843765258789)" fill="black">
      <g data-gra="path-name" fill-rule="" class="tp-name" transform="matrix(1,0,0,1,0,0)"
        opacity="1">
        <g transform="scale(1)">
          <g>
            <path
              d="M15.65 0Q15.95 0 16.18-0.23 16.4-0.45 16.4-0.75L16.4-0.75 16.4-30.85 25.2-30.85Q25.5-30.85 25.73-31.08 25.95-31.3 25.95-31.6L25.95-31.6 25.95-35 2-35 2-30.85 11.5-30.85 11.5 0 15.65 0ZM55.3-10.95Q54.15-7.85 51.28-5.68 48.4-3.5 45.05-3.5L45.05-3.5Q41.25-3.5 38.78-5.55 36.3-7.6 35.45-10.73 34.6-13.85 34.6-17.3L34.6-17.3Q34.6-21 35.63-24.08 36.65-27.15 39.1-29 41.55-30.85 44.9-30.85L44.9-30.85Q48.35-30.85 50.95-29.05 53.55-27.25 54.7-24.75L54.7-24.75 58.6-25.75Q56.45-30.35 53.18-32.5 49.9-34.65 44.45-34.65L44.45-34.65Q39.95-34.65 36.55-32.3 33.15-29.95 31.3-25.93 29.45-21.9 29.45-17L29.45-17Q29.45-12.15 31.25-8.22 33.05-4.3 36.65-1.98 40.25 0.35 45.4 0.35L45.4 0.35Q50.55 0.35 54.1-2.33 57.65-5 59.15-9.95L59.15-9.95 55.3-10.95ZM87.5-10.95Q86.35-7.85 83.48-5.68 80.6-3.5 77.25-3.5L77.25-3.5Q73.45-3.5 70.98-5.55 68.5-7.6 67.65-10.73 66.8-13.85 66.8-17.3L66.8-17.3Q66.8-21 67.83-24.08 68.85-27.15 71.3-29 73.75-30.85 77.1-30.85L77.1-30.85Q80.55-30.85 83.15-29.05 85.75-27.25 86.9-24.75L86.9-24.75 90.8-25.75Q88.65-30.35 85.38-32.5 82.1-34.65 76.65-34.65L76.65-34.65Q72.15-34.65 68.75-32.3 65.35-29.95 63.5-25.93 61.65-21.9 61.65-17L61.65-17Q61.65-12.15 63.45-8.22 65.25-4.3 68.85-1.98 72.45 0.35 77.6 0.35L77.6 0.35Q82.75 0.35 86.3-2.33 89.85-5 91.35-9.95L91.35-9.95 87.5-10.95Z"
              transform="translate(-2, 35)"></path>
          </g>
        </g>
      </g>
      <g data-gra="path-slogan" fill-rule="" class="tp-slogan"
        transform="matrix(1,0,0,1,6.338420867919922,42.349998474121094)" opacity="1">
        <rect width="0"></rect>
        <rect x="79.67315673828125" width="0"></rect>
        <g transform="translate(0,0)">
          <g transform="scale(1)">
            <path
              d="M11.36-9.65L11.36-9.65L9.65-9.65Q9.50-12.25 6.23-12.39L6.23-12.39Q3.19-12.32 3.19-10.02L3.19-10.02Q3.19-8.54 4.82-8.31L4.82-8.31L8.68-7.42Q11.73-6.68 11.73-3.71L11.73-3.71Q11.65 0.07 6.38 0.22L6.38 0.22Q3.49 0.22 2.30-0.96L2.30-0.96Q0.82-2.08 0.89-4.38L0.89-4.38L2.67-4.38Q2.75-1.26 6.38-1.19L6.38-1.19Q9.95-1.26 10.02-3.49L10.02-3.49Q10.32-5.34 7.05-5.94L7.05-5.94L4.23-6.53Q1.34-7.35 1.34-9.80L1.34-9.80Q1.56-13.80 6.09-13.95L6.09-13.95Q11.21-13.95 11.36-9.65ZM14.03-13.58L15.88-13.58L15.88-1.63L22.79-1.63L22.79 0L14.03 0L14.03-13.58ZM35.33-6.75L35.33-6.75Q35.03-12.10 30.58-12.39L30.58-12.39Q26.05-12.17 25.83-6.75L25.83-6.75Q26.05-1.48 30.58-1.26L30.58-1.26Q35.03-1.56 35.33-6.75ZM37.18-6.75L37.18-6.75Q36.74 0 30.58 0.22L30.58 0.22Q24.34 0 23.90-6.75L23.90-6.75Q24.27-13.80 30.58-13.95L30.58-13.95Q36.74-13.73 37.18-6.75ZM49.50-5.71L45.35-5.71L45.35-7.27L51.29-7.27L51.29 0L50.10 0L49.65-1.71Q48.09 0.15 45.20 0.22L45.20 0.22Q42.45 0.22 40.97-1.19L40.97-1.19Q38.74-3.27 38.82-6.90L38.82-6.90Q39.34-13.66 45.27-13.95L45.27-13.95Q50.32-13.66 51.06-9.50L51.06-9.50L49.28-9.50Q48.54-12.32 45.20-12.39L45.20-12.39Q40.97-12.10 40.75-6.83L40.75-6.83Q40.75-1.19 45.27-1.19L45.27-1.19Q46.91-1.19 48.09-2.08L48.09-2.08Q49.58-3.27 49.50-5.71L49.50-5.71ZM63.09 0L61.75-3.93L56.26-3.93L54.85 0L52.99 0L58.11-13.58L60.19-13.58L65.09 0L63.09 0ZM59.00-11.58L56.85-5.57L61.08-5.57L59.08-11.58L59.00-11.58ZM68.95-13.58L75.78-2.60L75.78-13.58L77.56-13.58L77.56 0L75.48 0L68.58-10.98L68.50-10.98L68.50 0L66.72 0L66.72-13.58L68.95-13.58Z"
              transform="translate(-0.890625, 13.953125)"></path>
          </g>
        </g>
      </g>
    </g>
  </mask>
  <defs v-gra="od"></defs>
</svg>