<svg width="24" height="24" viewBox="0 0 24 24" fill="none" xmlns="http://www.w3.org/2000/svg">
<g clipPath="url(#clip0_4188_6518)">
<path d="M21.0812 23.0351C20.9235 21.9054 19.8654 14.338 19.6948 13.1292C19.4235 11.2067 17.7649 10.6937 16.8174 10.6937L14.6089 10.6982V2.67347C14.5941 1.18623 13.4008 -0.0132027 11.8815 0.000109752C11.1533 0.00760973 10.497 0.307233 10.0335 0.843856C9.60229 1.3426 9.36941 2.01179 9.3771 2.71979V10.7086L7.04592 10.7132C5.94662 10.7609 3.85188 11.47 3.79244 13.8111C3.77125 14.6419 3.18757 20.3151 2.88194 23.1994C2.87127 23.3003 2.88194 23.4024 2.91326 23.4989C2.94458 23.5955 2.99585 23.6844 3.06374 23.7598C3.13163 23.8353 3.21463 23.8956 3.30735 23.9369C3.40007 23.9783 3.50043 23.9996 3.60194 23.9996H20.3841C20.389 23.9989 20.394 23.9989 20.3989 23.9996C20.5146 23.9996 20.6286 23.9718 20.7314 23.9186C20.8341 23.8654 20.9227 23.7883 20.9895 23.6939C21.0563 23.5994 21.0995 23.4903 21.1155 23.3757C21.1314 23.261 21.1197 23.1443 21.0812 23.0351ZM10.825 2.71172C10.821 2.3491 10.9288 2.0221 11.1289 1.79054C11.3198 1.56967 11.5849 1.45117 11.8956 1.44798C12.5702 1.45435 13.1541 1.99791 13.161 2.68079V10.7009L10.825 10.7056V2.71172ZM16.683 22.5521L16.9054 18.55C16.9106 18.455 16.8972 18.36 16.8657 18.2703C16.8342 18.1805 16.7853 18.0979 16.7219 18.0271C16.6585 17.9562 16.5817 17.8986 16.496 17.8574C16.4103 17.8163 16.3173 17.7924 16.2223 17.7872C15.8199 17.7694 15.4815 18.0707 15.4596 18.4695L15.2329 22.5521H12.4941L12.7223 18.5507C12.7331 18.3591 12.6674 18.171 12.5396 18.0278C12.4118 17.8846 12.2323 17.7981 12.0407 17.7872C11.6385 17.7717 11.2995 18.07 11.2765 18.4688L11.0438 22.5521H8.45217L8.6706 18.5492C8.68103 18.3576 8.61491 18.1696 8.48678 18.0267C8.35865 17.8838 8.179 17.7977 7.98736 17.7872C7.58836 17.7675 7.24674 18.0707 7.22499 18.4703L7.00224 22.5523H4.40631C4.63 20.4186 5.21687 14.7539 5.23974 13.8482C5.27893 12.3042 6.92517 12.1699 7.07892 12.1607L16.8283 12.1416C17.0396 12.1416 18.1016 12.1988 18.2614 13.3313C18.4106 14.391 19.2433 20.3443 19.5523 22.5523H16.683V22.5521Z" fill="#6959EA"/>
</g>
<defs>
<clipPath id="clip0_4188_6518">
<rect width="24" height="24" fill="white"/>
</clipPath>
</defs>
</svg>
