<svg width="28" height="23" viewBox="0 0 28 23" fill="none" xmlns="http://www.w3.org/2000/svg">
<path d="M13.9991 23C14.4693 23 14.8513 22.618 14.8513 22.1477V13.9815L16.8051 15.9352C16.9712 16.1013 17.1897 16.1844 17.4069 16.1844C17.6241 16.1844 17.8426 16.1013 18.0087 15.9352C18.341 15.603 18.341 15.0637 18.0087 14.7302L14.6022 11.3237C14.5817 11.3032 14.5613 11.2841 14.5383 11.2662C14.5306 11.2598 14.5217 11.2534 14.5127 11.247C14.4987 11.2368 14.4859 11.2266 14.4718 11.2164C14.4603 11.2087 14.4501 11.2023 14.4386 11.1959C14.4258 11.1882 14.4131 11.1806 14.4003 11.1729C14.3888 11.1665 14.3773 11.1614 14.3658 11.1563C14.3517 11.1499 14.339 11.1435 14.3249 11.1371C14.3134 11.132 14.3019 11.1282 14.2904 11.1244C14.2751 11.1192 14.261 11.1129 14.2457 11.109C14.2342 11.1052 14.224 11.1039 14.2125 11.1001C14.1971 11.0962 14.1805 11.0911 14.1652 11.0886C14.1524 11.086 14.1409 11.0847 14.1281 11.0835C14.1128 11.0809 14.0975 11.0784 14.0821 11.0771C14.0617 11.0745 14.0412 11.0745 14.0221 11.0745C14.0144 11.0745 14.0067 11.0732 13.9991 11.0732C13.9914 11.0732 13.9837 11.0745 13.9761 11.0745C13.9556 11.0745 13.9352 11.0758 13.916 11.0771C13.9007 11.0784 13.8853 11.0809 13.87 11.0835C13.8572 11.0847 13.8457 11.0873 13.833 11.0886C13.8163 11.0911 13.801 11.0962 13.7857 11.1001C13.7742 11.1026 13.764 11.1052 13.7525 11.109C13.7371 11.1141 13.7231 11.1192 13.7077 11.1244C13.6962 11.1282 13.6847 11.132 13.6732 11.1371C13.6592 11.1422 13.6464 11.1499 13.6323 11.1563C13.6208 11.1614 13.6093 11.1665 13.5978 11.1729C13.5851 11.1793 13.5723 11.1882 13.5595 11.1959C13.548 11.2023 13.5365 11.2087 13.5263 11.2164C13.5122 11.2253 13.4982 11.2368 13.4854 11.247C13.4765 11.2534 13.4688 11.2598 13.4598 11.2662C13.4381 11.2841 13.4164 11.3032 13.396 11.3237L9.9894 14.7302C9.65718 15.0625 9.65718 15.6017 9.9894 15.9352C10.3216 16.2687 10.8608 16.2674 11.1943 15.9352L13.1481 13.9815V22.1477C13.1468 22.618 13.5288 23 13.9991 23Z" fill="#6959EA"/>
<path d="M6.33223 20.4444H9.74006C10.2103 20.4444 10.5923 20.0624 10.5923 19.5922C10.5923 19.1219 10.2103 18.7399 9.74006 18.7399H6.33223C3.98367 18.7399 2.0734 16.8296 2.0734 14.4811C2.0734 12.6423 3.24512 11.0196 4.99056 10.4433C5.38795 10.3117 5.63201 9.91045 5.56429 9.49772C5.50806 9.15145 5.48123 8.83072 5.48123 8.51767C5.48123 4.75972 8.53767 1.70328 12.2956 1.70328C15.1834 1.70328 17.7671 3.53817 18.7241 6.26878C18.8557 6.64444 19.2288 6.87828 19.625 6.83356C19.7374 6.82078 19.8511 6.81439 19.9623 6.81439C23.25 6.81439 25.9257 9.48878 25.9257 12.7778C25.9257 15.7703 23.6908 18.3093 20.7238 18.6862C20.6497 18.6926 20.1028 18.7412 19.2352 18.7412H18.259C17.7888 18.7412 17.4067 19.1232 17.4067 19.5934C17.4067 20.0637 17.7888 20.4457 18.259 20.4457H19.2352C20.2613 20.4457 20.8785 20.3844 20.904 20.3818C20.9104 20.3806 20.9168 20.3806 20.9232 20.3793C24.7463 19.9001 27.629 16.6328 27.629 12.7791C27.629 8.59689 24.2633 5.1865 20.099 5.11367C18.7522 2.02911 15.692 0 12.2956 0C7.59851 0 3.77667 3.82183 3.77667 8.51894C3.77667 8.70678 3.78434 8.89461 3.79967 9.08756C1.72201 10.0574 0.370118 12.1453 0.370118 14.4823C0.36884 17.7701 3.04451 20.4444 6.33223 20.4444Z" fill="#6959EA"/>
</svg>
