<svg width="102" height="100" viewBox="0 0 102 100" fill="none" xmlns="http://www.w3.org/2000/svg">
<path d="M33.89 91.7423H31.2551C24.4217 91.7423 19.8454 90.6416 17.526 88.4401C15.207 86.2389 14.0475 81.8513 14.0475 75.2773V66.353C14.0475 63.1106 13.2036 60.3147 11.5157 57.9645C9.82826 55.6144 9.62141 54.4395 6.08105 54.4395V48.0587C9.95052 48.0587 10.2397 47.0621 11.7629 45.069C13.2859 43.076 14.0475 40.1461 14.0475 36.2791V24.6772C14.0475 18.1036 15.207 13.723 17.526 11.5367C19.8454 9.35041 24.4216 8.25732 31.2551 8.25732H33.89V14.6377H31.0082C27.1659 14.6377 24.6618 15.2849 23.4952 16.579C22.3288 17.8729 21.7455 20.6323 21.7455 24.8562V36.8143C21.7455 42.0498 20.7989 45.5676 18.9049 47.3669C17.0117 49.1666 15.7279 50.4682 10.2387 51.2717C15.5629 51.9556 16.8057 53.2719 18.7816 55.2203C20.7578 57.1688 21.7455 60.6865 21.7455 65.7729V75.0988C21.7455 79.3525 22.3288 82.1192 23.4952 83.3985C24.6617 84.6772 27.1659 85.317 31.0082 85.317H33.8899V91.7423H33.89ZM58.4818 82.4467H60.498C65.726 82.4467 69.2277 81.5911 71.0022 79.8797C72.7763 78.1689 73.6635 74.7583 73.6635 69.6483V62.7113C73.6635 60.191 74.3093 58.0176 75.6004 56.1908C76.8919 54.3641 77.0501 53.4509 79.7588 53.4509V48.491C76.7982 48.491 76.577 47.7164 75.4114 46.1671C74.2463 44.618 73.6635 42.3406 73.6635 39.3348V30.3164C73.6635 25.2067 72.7763 21.8016 71.0022 20.1021C69.2277 18.4028 65.726 17.553 60.498 17.553H58.4818V22.5125H60.6865C63.6264 22.5125 65.5422 23.0155 66.4348 24.0215C67.3273 25.0272 67.7734 27.1722 67.7734 30.4555V39.7507C67.7734 43.8203 68.4979 46.5547 69.9467 47.9534C71.3954 49.3523 72.3778 50.364 76.5772 50.9886C72.504 51.5202 71.5532 52.5433 70.0414 54.0579C68.5294 55.5723 67.7733 58.3067 67.7733 62.2603V69.5095C67.7733 72.816 67.3272 74.9664 66.4347 75.9608C65.5421 76.9549 63.6262 77.4522 60.6864 77.4522H58.4817V82.4467H58.4818Z" fill="white"/>
<path d="M68.8117 91.7423H71.3698C78.0042 91.7423 82.4472 90.6416 84.6988 88.4401C86.9502 86.2389 88.0763 81.8513 88.0763 75.2773V66.353C88.0763 63.1106 88.8955 60.3147 90.5343 57.9645C92.1726 55.6144 92.3734 54.4395 95.8106 54.4395V48.0587C92.0537 48.0587 91.7732 47.0621 90.2943 45.069C88.8156 43.076 88.0764 40.1461 88.0764 36.2791V24.6772C88.0764 18.1036 86.9503 13.723 84.6989 11.5367C82.4472 9.35041 78.0042 8.25732 71.3698 8.25732H68.8117V14.6377H71.6093C75.3398 14.6377 77.771 15.2849 78.9037 16.579C80.0359 17.8729 80.6022 20.6323 80.6022 24.8562V36.8143C80.6022 42.0498 81.5212 45.5676 83.3597 47.3669C85.198 49.1666 86.4449 50.4682 91.7737 51.2717C86.6046 51.9556 85.3983 53.2719 83.4798 55.2203C81.5613 57.1688 80.6022 60.6865 80.6022 65.7729V75.0988C80.6022 79.3525 80.0359 82.1192 78.9037 83.3985C77.771 84.6772 75.3397 85.317 71.6093 85.317H68.8117V91.7423ZM44.6073 82.6425H42.5185C37.1015 82.6425 33.4737 81.7817 31.6353 80.0602C29.7969 78.3388 28.8777 74.9076 28.8777 69.7668V62.788C28.8777 60.2523 28.2088 58.0659 26.8708 56.2282C25.533 54.3904 25.3689 53.4716 22.5625 53.4716V48.4818C25.6297 48.4818 25.8591 47.7026 27.0667 46.1438C28.274 44.5853 28.8778 42.2942 28.8778 39.2703V30.1976C28.8778 25.057 29.797 21.6313 31.6354 19.9216C33.4739 18.2119 37.1016 17.3571 42.5186 17.3571H44.6074V22.3466H42.323C39.2771 22.3466 37.2921 22.8527 36.3673 23.8647C35.4427 24.8765 34.9803 27.0344 34.9803 30.3375V39.6888C34.9803 43.783 34.2299 46.5338 32.7285 47.9408C31.2277 49.3483 30.2099 50.3661 25.8586 50.9944C30.0792 51.5291 31.0642 52.5586 32.6307 54.0823C34.1972 55.6058 34.9803 58.3569 34.9803 62.3344V69.6273C34.9803 72.9537 35.4427 75.1172 36.3673 76.1177C37.2921 77.1176 39.2771 77.6179 42.323 77.6179H44.6074V82.6425H44.6073Z" fill="white"/>
</svg>
