<svg width="24" height="24" viewBox="0 0 24 24" fill="none" xmlns="http://www.w3.org/2000/svg">
<path d="M5.36316 13.0915C8.02827 13.0915 10.7263 12.2916 10.7263 10.7627V4.20706H12.6203L12.2333 4.59408C12.0278 4.79953 12.0278 5.13234 12.2333 5.3378C12.3359 5.44038 12.4705 5.49197 12.6052 5.49197C12.7398 5.49197 12.8744 5.44068 12.977 5.3378L14.2616 4.05319C14.4671 3.84773 14.4671 3.51492 14.2616 3.30946L12.977 2.02484C12.7716 1.81939 12.4387 1.81939 12.2333 2.02484C12.0278 2.2303 12.0278 2.56311 12.2333 2.76857L12.62 3.15529H10.726V2.3288C10.726 0.799971 8.02798 0 5.36286 0C2.69775 0 0 0.799971 0 2.3288V10.7624C0 12.2916 2.69804 13.0915 5.36316 13.0915ZM5.36316 1.05176C8.03759 1.05176 9.67426 1.87855 9.67426 2.3288C9.67426 2.77906 8.03759 3.60584 5.36316 3.60584C2.68872 3.60584 1.05176 2.77906 1.05176 2.3288C1.05176 1.87855 2.68872 1.05176 5.36316 1.05176ZM1.05176 3.77108C2.08109 4.35685 3.72824 4.6579 5.36316 4.6579C6.99778 4.6579 8.64522 4.35685 9.67426 3.77108V5.13992C9.67426 5.59018 8.03759 6.41696 5.36316 6.41696C2.68872 6.41696 1.05176 5.59018 1.05176 5.13992V3.77108ZM1.05176 6.58249C2.08109 7.16826 3.72824 7.46931 5.36316 7.46931C6.99778 7.46931 8.64522 7.16826 9.67426 6.58249V7.95162C9.67426 8.40188 8.03759 9.22866 5.36316 9.22866C2.68872 9.22866 1.05176 8.40188 1.05176 7.95162V6.58249ZM1.05176 9.39361C2.08109 9.97938 3.72824 10.2804 5.36316 10.2804C6.99778 10.2804 8.64522 9.97938 9.67426 9.39361V10.7624C9.67426 11.2127 8.03759 12.0395 5.36316 12.0395C2.68872 12.0395 1.05176 11.2127 1.05176 10.7624V9.39361ZM8.36662 17.4021H4.20735V16.0009L4.59408 16.3876C4.69666 16.4902 4.8313 16.5418 4.96594 16.5418C5.10058 16.5418 5.23493 16.4905 5.3378 16.3876C5.54326 16.1821 5.54326 15.8493 5.3378 15.6439L4.05319 14.3593C3.85589 14.162 3.50676 14.162 3.30946 14.3593L2.02484 15.6439C1.81939 15.8493 1.81939 16.1821 2.02484 16.3876C2.2303 16.5931 2.5634 16.5931 2.76857 16.3876L3.15529 16.0009V17.4021H0.526028C0.235474 17.4021 0 17.6375 0 17.9281V23.4737C0 23.7642 0.235474 23.9997 0.526028 23.9997H8.36662C8.65717 23.9997 8.89265 23.7642 8.89265 23.4737V17.9281C8.89235 17.6375 8.65688 17.4021 8.36662 17.4021ZM7.84059 22.9477H1.05176V18.4538H7.84059V22.9477ZM23.474 0H15.6331C15.3425 0 15.1071 0.235474 15.1071 0.526028V6.07162C15.1071 6.36217 15.3425 6.59765 15.6331 6.59765H19.7926V12.4513L19.4059 12.0646C19.2005 11.8591 18.8674 11.8591 18.6619 12.0646C18.4567 12.27 18.4567 12.6028 18.6619 12.8083L19.9465 14.0929C20.045 14.1914 20.1791 14.2471 20.3184 14.2471C20.4577 14.2471 20.5917 14.1917 20.6902 14.0929L21.9749 12.8083C22.18 12.6028 22.18 12.27 21.9749 12.0646C21.7694 11.8591 21.4363 11.8591 21.2308 12.0646L20.8438 12.4516V6.59765H23.4734C23.7639 6.59765 23.9991 6.36217 23.9991 6.07162V0.526028C23.9997 0.235474 23.7642 0 23.474 0ZM22.9479 5.54559H16.1591V1.05176H22.9479V5.54559ZM23.474 15.1074H17.9281C17.6375 15.1074 17.4024 15.3428 17.4024 15.6334V19.7926H11.7577L12.1444 19.4059C12.3499 19.2005 12.3499 18.8677 12.1444 18.6622C11.9389 18.4567 11.6061 18.4567 11.4007 18.6622L10.1161 19.9468C9.9106 20.1523 9.9106 20.4851 10.1161 20.6905L11.4007 21.9752C11.5033 22.0777 11.6379 22.1293 11.7725 22.1293C11.9072 22.1293 12.0415 22.078 12.1444 21.9752C12.3499 21.7697 12.3499 21.4369 12.1444 21.2314L11.7574 20.8444H17.4018V23.474C17.4018 23.7645 17.6372 24 17.9275 24H23.4734C23.7639 24 23.9991 23.7645 23.9991 23.474V15.6331C23.9997 15.3428 23.7642 15.1074 23.474 15.1074ZM22.9479 22.9479H18.4538V16.1591H22.9479V22.9479Z" fill="#6959EA"/>
</svg>
