<svg width="22" height="20" viewBox="0 0 22 20" fill="none" xmlns="http://www.w3.org/2000/svg">
<path d="M16.2295 15.5494C16.2305 15.8586 16.1448 16.1618 15.9823 16.4247C15.8197 16.6877 15.5868 16.8998 15.3098 17.0371L15.2801 17.0507L12.6543 18.1691C12.6283 18.1806 12.6014 18.1896 12.5738 18.1962L8.24594 19.2782C8.20308 19.2892 8.15901 19.2949 8.11475 19.2951H1.08197C0.795012 19.2951 0.519809 19.1811 0.316901 18.9782C0.113993 18.7753 0 18.5 0 18.2131V15.5082C0 15.2212 0.113993 14.946 0.316901 14.7431C0.519809 14.5402 0.795012 14.4262 1.08197 14.4262H3.02207L4.5517 12.8959C4.75227 12.6944 4.99078 12.5347 5.25345 12.4259C5.51611 12.3172 5.79772 12.2616 6.08201 12.2623H9.46721C9.75297 12.2622 10.035 12.3269 10.2922 12.4514C10.5495 12.5759 10.7752 12.7569 10.9524 12.9811C11.1297 13.2052 11.254 13.4665 11.3159 13.7455C11.3778 14.0245 11.3758 14.3138 11.3099 14.5919L14.1393 13.9414C14.3856 13.8761 14.6436 13.8683 14.8934 13.9186C15.1432 13.9688 15.3781 14.0757 15.5801 14.2311C15.782 14.3864 15.9456 14.5861 16.0582 14.8147C16.1708 15.0433 16.2294 15.2946 16.2295 15.5494ZM15.1475 15.5494C15.1475 15.46 15.1268 15.3718 15.0871 15.2916C15.0474 15.2114 14.9897 15.1415 14.9187 15.0872C14.8476 15.0329 14.7649 14.9958 14.6771 14.9786C14.5894 14.9614 14.4988 14.9647 14.4125 14.9882L14.3915 14.9936L9.86078 16.0356C9.82104 16.0445 9.78045 16.049 9.73973 16.0492H7.57377C7.43029 16.0492 7.29269 15.9922 7.19124 15.8907C7.08978 15.7893 7.03279 15.6517 7.03279 15.5082C7.03279 15.3647 7.08978 15.2271 7.19124 15.1256C7.29269 15.0242 7.43029 14.9672 7.57377 14.9672H9.46721C9.68243 14.9672 9.88883 14.8817 10.041 14.7295C10.1932 14.5773 10.2787 14.3709 10.2787 14.1557C10.2787 13.9405 10.1932 13.7341 10.041 13.5819C9.88883 13.4297 9.68243 13.3442 9.46721 13.3442H6.08201C5.93987 13.3438 5.79906 13.3716 5.66776 13.426C5.53646 13.4805 5.4173 13.5605 5.31719 13.6614L3.78689 15.191V18.2131H8.04713L12.2688 17.1575L14.8385 16.0634C14.932 16.0141 15.0103 15.9401 15.0648 15.8495C15.1192 15.7589 15.1479 15.6551 15.1475 15.5494Z" fill="#EE6F2D"/>
<path fill-rule="evenodd" clip-rule="evenodd" d="M15.5082 12.9836C19.0935 12.9836 22 10.0771 22 6.4918C22 2.90648 19.0935 0 15.5082 0C11.9228 0 9.01636 2.90648 9.01636 6.4918C9.01636 10.0771 11.9228 12.9836 15.5082 12.9836ZM15.9945 6.71993L16.6742 6.92534C16.6286 7.11592 16.5567 7.27511 16.4585 7.40292C16.3603 7.53073 16.2382 7.62716 16.0921 7.69221C15.9471 7.75725 15.7622 7.78978 15.5374 7.78978C15.2646 7.78978 15.0414 7.75041 14.8679 7.67167C14.6956 7.59178 14.5466 7.45199 14.4211 7.25229C14.2955 7.05258 14.2327 6.79696 14.2327 6.48542C14.2327 6.07004 14.3429 5.75108 14.5632 5.52856C14.7846 5.30489 15.0974 5.19306 15.5014 5.19306C15.8176 5.19306 16.0658 5.25696 16.2462 5.38477C16.4277 5.51258 16.5624 5.70886 16.6503 5.97361L15.9654 6.12596C15.9414 6.0495 15.9163 5.99358 15.8901 5.95821C15.8467 5.89887 15.7936 5.85322 15.7308 5.82127C15.6681 5.78931 15.5979 5.77334 15.5203 5.77334C15.3445 5.77334 15.2098 5.84409 15.1162 5.98559C15.0454 6.09058 15.01 6.25548 15.01 6.48029C15.01 6.75873 15.0523 6.94988 15.1367 7.05372C15.2212 7.15643 15.3399 7.20778 15.4929 7.20778C15.6412 7.20778 15.7531 7.16613 15.8284 7.08282C15.9049 6.99952 15.9603 6.87856 15.9945 6.71993ZM11.6132 5.23585H13.9708V5.8555H13.1798V7.74527H12.4042V5.8555H11.6132V5.23585ZM19.4033 6.92534L18.7236 6.71993C18.6894 6.87856 18.634 6.99952 18.5576 7.08282C18.4822 7.16613 18.3704 7.20778 18.222 7.20778C18.069 7.20778 17.9503 7.15643 17.8659 7.05372C17.7814 6.94988 17.7392 6.75873 17.7392 6.48029C17.7392 6.25548 17.7745 6.09058 17.8453 5.98559C17.9389 5.84409 18.0736 5.77334 18.2494 5.77334C18.327 5.77334 18.3972 5.78931 18.46 5.82127C18.5227 5.85322 18.5758 5.89887 18.6192 5.95821C18.6454 5.99358 18.6706 6.0495 18.6945 6.12596L19.3794 5.97361C19.2915 5.70886 19.1568 5.51258 18.9753 5.38477C18.795 5.25696 18.5467 5.19306 18.2305 5.19306C17.8265 5.19306 17.5137 5.30489 17.2923 5.52856C17.072 5.75108 16.9619 6.07004 16.9619 6.48542C16.9619 6.79696 17.0246 7.05258 17.1502 7.25229C17.2757 7.45199 17.4247 7.59178 17.5971 7.67167C17.7706 7.75041 17.9937 7.78978 18.2665 7.78978C18.4914 7.78978 18.6763 7.75725 18.8212 7.69221C18.9673 7.62716 19.0895 7.53073 19.1876 7.40292C19.2858 7.27511 19.3577 7.11592 19.4033 6.92534Z" fill="#EE6F2D"/>
</svg>
