<svg width="26" height="25" viewBox="0 0 26 25" fill="none" xmlns="http://www.w3.org/2000/svg">
<path fill-rule="evenodd" clip-rule="evenodd" d="M2.02808 0H23.9702C24.3873 0 24.7698 0.172443 25.0465 0.448352L25.0485 0.45038L25.0505 0.452409L25.0526 0.454438C25.3293 0.732375 25.5002 1.11175 25.5002 1.52764V22.4805C25.5002 22.9004 25.3272 23.2818 25.0505 23.5577C24.7738 23.8336 24.3914 24.0061 23.9702 24.0061H2.02808C1.611 24.0061 1.22852 23.8357 0.949788 23.5577L0.947754 23.5557L0.945719 23.5537L0.943685 23.5516C0.666992 23.2737 0.496094 22.8943 0.496094 22.4784V1.52358C0.500163 1.10363 0.671061 0.722232 0.947754 0.446323C0.96403 0.430093 0.980306 0.413863 0.998617 0.399662C1.27124 0.152156 1.63338 0 2.02808 0ZM13.8852 20.0338C13.5637 20.0338 13.3033 19.7518 13.3033 19.4029C13.3033 19.0539 13.5637 18.7719 13.8852 18.7719H21.0507C21.3722 18.7719 21.6326 19.0539 21.6326 19.4029C21.6326 19.7518 21.3722 20.0338 21.0507 20.0338H13.8852ZM4.736 20.0338C4.41862 20.0338 4.16024 19.7518 4.16024 19.4029C4.16024 19.0539 4.41862 18.7719 4.736 18.7719H11.3787C11.696 18.7719 11.9544 19.0539 11.9544 19.4029C11.9544 19.7518 11.696 20.0338 11.3787 20.0338H4.736ZM4.5061 17.2768C4.18872 17.2768 3.93034 16.9948 3.93034 16.6458C3.93034 16.2969 4.18872 16.0149 4.5061 16.0149H11.1488C11.4661 16.0149 11.7245 16.2969 11.7245 16.6458C11.7245 16.9948 11.4661 17.2768 11.1488 17.2768H4.5061ZM13.8852 17.2768C13.5637 17.2768 13.3033 16.9948 13.3033 16.6458C13.3033 16.2969 13.5637 16.0149 13.8852 16.0149H21.0507C21.3722 16.0149 21.6326 16.2969 21.6326 16.6458C21.6326 16.9948 21.3722 17.2768 21.0507 17.2768H13.8852ZM4.07886 7.05393H21.5634V13.8806H4.07886V7.05393ZM24.1187 5.4634C24.0699 5.47151 24.0211 5.47557 23.9723 5.47557H2.02808C1.97721 5.47557 1.92839 5.47151 1.88159 5.4634V22.4764C1.88159 22.517 1.89787 22.5535 1.92228 22.5799L1.92432 22.5819C1.95077 22.6083 1.98535 22.6225 2.02808 22.6225H23.9702C24.0089 22.6225 24.0455 22.6063 24.074 22.5779C24.1004 22.5515 24.1187 22.515 24.1187 22.4744V5.4634ZM10.6971 1.96788C11.2464 1.96788 11.6899 2.41217 11.6899 2.9579C11.6899 3.50363 11.2444 3.94793 10.6971 3.94793C10.1498 3.94793 9.70427 3.50363 9.70427 2.9579C9.70427 2.41217 10.1498 1.96788 10.6971 1.96788ZM7.2242 1.96788C7.77352 1.96788 8.21704 2.41217 8.21704 2.9579C8.21704 3.50363 7.77148 3.94793 7.2242 3.94793C6.67489 3.94793 6.23136 3.50363 6.23136 2.9579C6.23136 2.41217 6.67692 1.96788 7.2242 1.96788ZM3.75334 1.96788C4.30265 1.96788 4.74618 2.41217 4.74618 2.9579C4.74618 3.50363 4.30062 3.94793 3.75334 3.94793C3.20402 3.94793 2.7605 3.50363 2.7605 2.9579C2.7605 2.41217 3.20402 1.96788 3.75334 1.96788Z" fill="#6959EA"/>
</svg>
