<svg width="30" height="22" viewBox="0 0 30 22" fill="none" xmlns="http://www.w3.org/2000/svg">
<path fill-rule="evenodd" clip-rule="evenodd" d="M24.0741 8.55701C24.0669 8.5807 24.0596 8.60445 24.0593 8.63047C27.3835 9.01347 30.0004 11.7687 30 15.2412C30 18.9743 27.0163 22 23.3351 22H7.97858C3.57206 22 0 18.3776 0 13.9091C0 9.47314 3.5248 5.88948 7.88757 5.83659C8.99541 2.46838 12.0309 0 15.7247 0C20.3444 0 24.0887 3.79771 24.0887 8.48245C24.0887 8.50879 24.0814 8.53287 24.0741 8.55701ZM17.9611 13.0707H20.5842C20.5959 13.0707 20.6074 13.0699 20.6185 13.0685C20.6075 13.0699 20.5962 13.0706 20.5847 13.0706H17.9616C17.9558 13.0706 17.9501 13.0708 17.9444 13.0711L16.1817 11.0628C16.1089 10.9791 15.9802 10.9791 15.9069 11.0628L13.9092 13.3383L12.3065 15.1636V13.3404C12.3065 13.1916 12.1871 13.0706 12.0405 13.0706H9.41733C9.18736 13.0706 9.06555 12.7948 9.21817 12.6209L11.9123 9.55259L12.1014 9.33725C12.1129 9.35998 12.1255 9.38188 12.139 9.40295C12.2291 9.54338 12.3553 9.64803 12.5177 9.7169C12.6801 9.78578 12.8705 9.82021 13.0889 9.82021C13.3066 9.82021 13.4923 9.78712 13.6462 9.72093C13.8009 9.65474 13.9195 9.55948 14.0019 9.43515C14.0844 9.31082 14.126 9.1619 14.1269 8.98837C14.126 8.87835 14.1082 8.77907 14.0733 8.69052C14.0385 8.60197 13.987 8.5237 13.919 8.45572C13.8519 8.38775 13.7686 8.32916 13.6691 8.27996C13.5705 8.23077 13.4566 8.19141 13.3274 8.1619L13.1669 8.12352L13.4708 7.77735C13.4788 7.80331 13.4842 7.83131 13.4868 7.86136H14.0912C14.0895 7.69052 14.0474 7.54025 13.9649 7.41055C13.9411 7.37309 13.9145 7.33804 13.8851 7.30543L14.8022 6.2607C14.8469 6.20973 14.9057 6.18022 14.9668 6.17218C14.9056 6.18013 14.8465 6.20966 14.8017 6.26077L13.8848 7.30519C13.8125 7.22501 13.7231 7.15951 13.6168 7.10868C13.4681 7.03623 13.2925 7 13.0902 7C12.8921 7 12.7158 7.03578 12.561 7.10733C12.4063 7.17889 12.2852 7.27862 12.1976 7.40653C12.1101 7.53444 12.0667 7.68336 12.0676 7.85331C12.0667 8.06172 12.1313 8.22719 12.2614 8.34973C12.3819 8.46248 12.5438 8.54642 12.7468 8.60153L12.5109 8.8703H12C12.0022 9.05262 12.0359 9.20817 12.1012 9.33694L11.9119 9.55266L9.21768 12.6209C9.06507 12.7949 9.18688 13.0707 9.41685 13.0707H12.04C12.1866 13.0707 12.306 13.1917 12.306 13.3404V15.1642L12.0469 15.4593C11.9414 15.5795 12.0256 15.7702 12.1845 15.7702H12.306V17.7547C12.306 17.9041 12.4254 18.0252 12.5727 18.0252H14.1824C14.191 18.1204 14.2699 18.195 14.3661 18.195H17.7226C17.8239 18.195 17.9064 18.1114 17.9064 18.0081V15.9566C17.9064 15.8538 17.989 15.7702 18.0908 15.7702H19.9041C20.0626 15.7702 20.1473 15.5798 20.0413 15.4593L18.1789 13.3383L17.9444 13.0712C17.9499 13.0708 17.9555 13.0707 17.9611 13.0707ZM14.1824 18.0251L14.1824 18.0252H17.4283C17.4404 18.0252 17.4524 18.0243 17.4641 18.0227C17.4525 18.0243 17.4408 18.0251 17.4288 18.0251H14.1824ZM12.3065 15.7702H12.306V15.1642L12.3065 15.1636V15.7702ZM12.3065 15.7702V17.7546C12.3065 17.9041 12.4258 18.0251 12.5732 18.0251H14.1824C14.1819 18.0195 14.1817 18.0138 14.1817 18.0081V15.9566C14.1817 15.8538 14.0992 15.7702 13.9978 15.7702H12.3065ZM17.9444 13.0712C17.9381 13.0716 17.9319 13.0722 17.9257 13.073C17.9319 13.0722 17.9381 13.0715 17.9444 13.0711L17.9444 13.0712ZM12.5113 8.8703L12.1014 9.33725C12.1013 9.33714 12.1013 9.33704 12.1012 9.33694L12.5109 8.8703H12.5113ZM12.7472 8.60163C12.7631 8.60594 12.7792 8.61008 12.7957 8.61404L13.0685 8.68113C13.1637 8.70438 13.242 8.72987 13.3032 8.7576C13.3652 8.78444 13.4111 8.81664 13.4409 8.8542C13.4706 8.89088 13.4859 8.93515 13.4868 8.98703C13.4859 9.04249 13.4693 9.09168 13.437 9.13462C13.4047 9.17755 13.3584 9.21109 13.2981 9.23524C13.2386 9.25939 13.1663 9.27147 13.0813 9.27147C12.9886 9.27147 12.907 9.25626 12.8365 9.22585C12.7668 9.19544 12.7119 9.15072 12.672 9.09168C12.632 9.03265 12.6095 8.95885 12.6044 8.8703H12.5113L12.7472 8.60163ZM12.7472 8.60163C12.7471 8.6016 12.7469 8.60157 12.7468 8.60153L13.1665 8.12343L13.1669 8.12352L12.7472 8.60163ZM13.4707 7.77699C13.4707 7.77711 13.4707 7.77723 13.4708 7.77735L13.8851 7.30543C13.885 7.30535 13.8849 7.30527 13.8848 7.30519L13.4707 7.77699ZM13.4707 7.77699C13.4523 7.71811 13.4198 7.66975 13.3733 7.63193C13.307 7.57648 13.2122 7.54875 13.0889 7.54875C13.0073 7.54875 12.9393 7.55993 12.8849 7.58229C12.8305 7.60465 12.7897 7.63551 12.7625 7.67487C12.7353 7.71333 12.7213 7.7576 12.7204 7.80769C12.7187 7.84884 12.7264 7.88506 12.7434 7.91637C12.7612 7.94767 12.7867 7.9754 12.8199 7.99955C12.8539 8.02281 12.8947 8.04338 12.9423 8.06127C12.9899 8.07916 13.0435 8.09481 13.103 8.10823L13.1665 8.12343L13.4707 7.77699ZM15.4441 8.79785H15.9541L16.115 9.01393C16.1452 8.97039 16.171 8.92072 16.1925 8.86494C16.241 8.7415 16.2652 8.59034 16.2652 8.41145C16.2652 8.23256 16.241 8.0814 16.1925 7.95796C16.1449 7.83453 16.0761 7.74106 15.986 7.67755C15.8967 7.61404 15.7892 7.58229 15.6634 7.58229C15.5384 7.58229 15.4309 7.61404 15.3408 7.67755C15.2507 7.74106 15.1814 7.83453 15.1329 7.95796C15.0853 8.0814 15.0615 8.23256 15.0615 8.41145C15.0615 8.59034 15.0853 8.7415 15.1329 8.86494C15.1814 8.98837 15.2507 9.08184 15.3408 9.14535C15.4309 9.20886 15.5384 9.24061 15.6634 9.24061C15.6959 9.24061 15.7273 9.23848 15.7574 9.23423L15.4441 8.79785ZM16.7447 9.18023C16.6793 9.3046 16.6002 9.41127 16.5074 9.50025L16.8926 10H16.3213L16.1177 9.74377C15.9773 9.79652 15.8259 9.8229 15.6634 9.8229C15.4288 9.8229 15.2175 9.76789 15.0296 9.65787C14.8418 9.54785 14.6926 9.38819 14.5821 9.17889C14.4724 8.96869 14.4176 8.71288 14.4176 8.41145C14.4176 8.10912 14.4724 7.85286 14.5821 7.64267C14.6926 7.43247 14.8418 7.27281 15.0296 7.16369C15.2175 7.05456 15.4288 7 15.6634 7C15.8971 7 16.108 7.05456 16.2958 7.16369C16.4845 7.27281 16.6342 7.43247 16.7447 7.64267C16.8552 7.85286 16.9104 8.10912 16.9104 8.41145C16.9104 8.71377 16.8552 8.97004 16.7447 9.18023ZM17.9136 7.03757H17.2824V9.78533H19V9.24598H17.9136V7.03757Z" fill="#6959EA"/>
</svg>
