<svg width="102" height="30" viewBox="0 0 102 30" fill="none" xmlns="http://www.w3.org/2000/svg">
<path d="M38.5485 19.4554V13.6047H36.7372V12.6449H41.4025V13.6047H39.6187V19.4554H38.5485Z" fill="black"/>
<path d="M42.2676 21.4758C42.1456 21.4758 42.0236 21.4636 41.9017 21.4392C41.7858 21.4209 41.6791 21.3904 41.5815 21.3478V20.461C41.6547 20.4793 41.7431 20.4945 41.8468 20.5067C41.9504 20.525 42.0511 20.5342 42.1486 20.5342C42.4353 20.5342 42.6457 20.4702 42.7798 20.3422C42.9201 20.2203 43.0451 20.0283 43.1549 19.7663L43.4842 19.0166L43.4659 19.8851L41.3254 14.5098H42.4322L44.0148 18.6327H43.6397L45.2131 14.5098H46.3291L44.1428 19.9948C44.027 20.2873 43.8806 20.5433 43.7037 20.7627C43.533 20.9882 43.3287 21.1619 43.0908 21.2838C42.8591 21.4118 42.5847 21.4758 42.2676 21.4758Z" fill="black"/>
<path d="M47.1223 21.2838V14.5098H48.1103V15.5336L47.9913 15.296C48.1743 15.0156 48.4182 14.7962 48.7231 14.6378C49.0281 14.4793 49.3757 14.4001 49.766 14.4001C50.2356 14.4001 50.6563 14.5128 51.0283 14.7383C51.4065 14.9638 51.7022 15.2716 51.9157 15.6616C52.1352 16.0517 52.245 16.4905 52.245 16.978C52.245 17.4656 52.1352 17.9044 51.9157 18.2944C51.7022 18.6845 51.4095 18.9953 51.0375 19.2269C50.6655 19.4524 50.2417 19.5651 49.766 19.5651C49.3818 19.5651 49.0311 19.4859 48.714 19.3275C48.403 19.169 48.1621 18.9405 47.9913 18.6418L48.156 18.4499V21.2838H47.1223ZM49.6654 18.6053C49.9581 18.6053 50.2173 18.5352 50.4429 18.395C50.6685 18.2548 50.8454 18.0629 50.9735 17.8191C51.1076 17.5692 51.1747 17.2889 51.1747 16.978C51.1747 16.6672 51.1076 16.3899 50.9735 16.1461C50.8454 15.9024 50.6685 15.7104 50.4429 15.5702C50.2173 15.43 49.9581 15.3599 49.6654 15.3599C49.3787 15.3599 49.1195 15.43 48.8878 15.5702C48.6622 15.7104 48.4823 15.9024 48.3481 16.1461C48.22 16.3899 48.156 16.6672 48.156 16.978C48.156 17.2889 48.22 17.5692 48.3481 17.8191C48.4823 18.0629 48.6622 18.2548 48.8878 18.395C49.1195 18.5352 49.3787 18.6053 49.6654 18.6053Z" fill="black"/>
<path d="M55.7238 19.5651C55.2481 19.5651 54.8121 19.4524 54.4157 19.2269C54.0254 19.0014 53.7144 18.6936 53.4826 18.3036C53.2509 17.9135 53.135 17.4717 53.135 16.978C53.135 16.4783 53.2509 16.0364 53.4826 15.6525C53.7144 15.2624 54.0254 14.9577 54.4157 14.7383C54.806 14.5128 55.242 14.4001 55.7238 14.4001C56.2117 14.4001 56.6477 14.5128 57.0319 14.7383C57.4222 14.9577 57.7302 15.2624 57.9558 15.6525C58.1876 16.0364 58.3034 16.4783 58.3034 16.978C58.3034 17.4778 58.1876 17.9227 57.9558 18.3127C57.7241 18.7028 57.4131 19.0105 57.0228 19.236C56.6325 19.4554 56.1995 19.5651 55.7238 19.5651ZM55.7238 18.6053C56.0165 18.6053 56.2757 18.5352 56.5014 18.395C56.727 18.2548 56.9038 18.0629 57.0319 17.8191C57.1661 17.5692 57.2332 17.2889 57.2332 16.978C57.2332 16.6672 57.1661 16.3899 57.0319 16.1461C56.9038 15.9024 56.727 15.7104 56.5014 15.5702C56.2757 15.43 56.0165 15.3599 55.7238 15.3599C55.4372 15.3599 55.178 15.43 54.9463 15.5702C54.7206 15.7104 54.5407 15.9024 54.4065 16.1461C54.2785 16.3899 54.2144 16.6672 54.2144 16.978C54.2144 17.2889 54.2785 17.5692 54.4065 17.8191C54.5407 18.0629 54.7206 18.2548 54.9463 18.395C55.178 18.5352 55.4372 18.6053 55.7238 18.6053Z" fill="black"/>
<path d="M62.6915 19.5651C62.2097 19.5651 61.7615 19.4768 61.3468 19.3C60.9382 19.1233 60.5784 18.8795 60.2674 18.5687C59.9625 18.2518 59.7246 17.88 59.5539 17.4534C59.3831 17.0268 59.2977 16.5575 59.2977 16.0456C59.2977 15.5397 59.3801 15.0735 59.5447 14.6469C59.7155 14.2142 59.9533 13.8424 60.2582 13.5316C60.5632 13.2147 60.9199 12.9709 61.3285 12.8003C61.7371 12.6235 62.1853 12.5352 62.6732 12.5352C63.155 12.5352 63.5849 12.6174 63.963 12.782C64.3472 12.9465 64.6704 13.1629 64.9327 13.431C65.1949 13.6931 65.384 13.9795 65.4998 14.2904L64.5393 14.7566C64.3991 14.3848 64.1673 14.0862 63.8441 13.8607C63.5209 13.6291 63.1306 13.5133 62.6732 13.5133C62.2219 13.5133 61.8225 13.62 61.4749 13.8333C61.1273 14.0466 60.8559 14.3422 60.6607 14.72C60.4717 15.0979 60.3772 15.5397 60.3772 16.0456C60.3772 16.5514 60.4747 16.9963 60.6699 17.3803C60.8711 17.7581 61.1456 18.0537 61.4932 18.267C61.8408 18.4742 62.2402 18.5778 62.6915 18.5778C63.0696 18.5778 63.4142 18.5017 63.7252 18.3493C64.0423 18.1908 64.2954 17.9714 64.4844 17.6911C64.6735 17.4046 64.768 17.0725 64.768 16.6946V16.2284L65.2528 16.6672H62.6732V15.753H65.8383V16.393C65.8383 16.8927 65.7529 17.3407 65.5822 17.7368C65.4114 18.1268 65.1797 18.459 64.8869 18.7332C64.5942 19.0075 64.2588 19.2147 63.8807 19.3549C63.5026 19.4951 63.1062 19.5651 62.6915 19.5651Z" fill="black"/>
<path d="M66.9255 19.4554V14.5098H67.9135V15.5062L67.822 15.3599C67.9317 15.0369 68.1086 14.8054 68.3525 14.6652C68.5965 14.5189 68.8892 14.4458 69.2307 14.4458H69.5326V15.3874H69.1026C68.7611 15.3874 68.4837 15.494 68.2702 15.7073C68.0629 15.9145 67.9592 16.2132 67.9592 16.6032V19.4554H66.9255Z" fill="black"/>
<path d="M71.8074 19.5651C71.472 19.5651 71.1762 19.5072 70.9201 19.3914C70.6701 19.2696 70.4749 19.105 70.3346 18.8978C70.1944 18.6845 70.1243 18.4346 70.1243 18.1482C70.1243 17.88 70.1822 17.6393 70.2981 17.426C70.42 17.2127 70.606 17.0329 70.8561 16.8866C71.1061 16.7403 71.4202 16.6367 71.7983 16.5758L73.518 16.2924V17.106L71.9995 17.3711C71.7251 17.4199 71.5238 17.5083 71.3958 17.6362C71.2677 17.7581 71.2037 17.9166 71.2037 18.1116C71.2037 18.3005 71.2738 18.4559 71.4141 18.5778C71.5604 18.6936 71.7464 18.7515 71.9721 18.7515C72.2526 18.7515 72.4965 18.6906 72.7039 18.5687C72.9173 18.4468 73.082 18.2853 73.1979 18.0842C73.3137 17.877 73.3717 17.6484 73.3717 17.3986V16.1279C73.3717 15.8841 73.2802 15.686 73.0972 15.5336C72.9204 15.3752 72.6825 15.296 72.3837 15.296C72.1093 15.296 71.8684 15.3691 71.6611 15.5154C71.4598 15.6555 71.3104 15.8384 71.2128 16.0639L70.3529 15.6342C70.4444 15.3904 70.5938 15.1771 70.8012 14.9943C71.0085 14.8054 71.2494 14.6591 71.5238 14.5555C71.8044 14.4519 72.1001 14.4001 72.4112 14.4001C72.8015 14.4001 73.146 14.4732 73.4448 14.6195C73.7498 14.7657 73.9846 14.9699 74.1492 15.232C74.32 15.4879 74.4053 15.7866 74.4053 16.1279V19.4554H73.4174V18.5596L73.6278 18.587C73.5119 18.7881 73.3625 18.9618 73.1796 19.1081C73.0027 19.2543 72.7984 19.3671 72.5667 19.4463C72.341 19.5255 72.0879 19.5651 71.8074 19.5651Z" fill="black"/>
<path d="M75.6997 21.2838V14.5098H76.6877V15.5336L76.5688 15.296C76.7517 15.0156 76.9957 14.7962 77.3006 14.6378C77.6055 14.4793 77.9531 14.4001 78.3434 14.4001C78.813 14.4001 79.2338 14.5128 79.6058 14.7383C79.9839 14.9638 80.2797 15.2716 80.4931 15.6616C80.7126 16.0517 80.8224 16.4905 80.8224 16.978C80.8224 17.4656 80.7126 17.9044 80.4931 18.2944C80.2797 18.6845 79.9869 18.9953 79.6149 19.2269C79.2429 19.4524 78.8191 19.5651 78.3434 19.5651C77.9592 19.5651 77.6085 19.4859 77.2914 19.3275C76.9804 19.169 76.7395 18.9405 76.5688 18.6418L76.7334 18.4499V21.2838H75.6997ZM78.2428 18.6053C78.5355 18.6053 78.7947 18.5352 79.0203 18.395C79.246 18.2548 79.4228 18.0629 79.5509 17.8191C79.6851 17.5692 79.7521 17.2889 79.7521 16.978C79.7521 16.6672 79.6851 16.3899 79.5509 16.1461C79.4228 15.9024 79.246 15.7104 79.0203 15.5702C78.7947 15.43 78.5355 15.3599 78.2428 15.3599C77.9561 15.3599 77.697 15.43 77.4652 15.5702C77.2396 15.7104 77.0597 15.9024 76.9255 16.1461C76.7974 16.3899 76.7334 16.6672 76.7334 16.978C76.7334 17.2889 76.7974 17.5692 76.9255 17.8191C77.0597 18.0629 77.2396 18.2548 77.4652 18.395C77.697 18.5352 77.9561 18.6053 78.2428 18.6053Z" fill="black"/>
<path d="M81.9137 19.4554V12.5352H82.9474V15.4788L82.7827 15.3508C82.9047 15.04 83.0998 14.8054 83.3682 14.6469C83.6365 14.4823 83.9475 14.4001 84.3012 14.4001C84.6671 14.4001 84.9903 14.4793 85.2709 14.6378C85.5514 14.7962 85.7709 15.0156 85.9295 15.296C86.0881 15.5763 86.1673 15.8963 86.1673 16.2558V19.4554H85.1428V16.5392C85.1428 16.2894 85.094 16.0791 84.9964 15.9085C84.905 15.7317 84.7769 15.5976 84.6122 15.5062C84.4476 15.4087 84.2585 15.3599 84.0451 15.3599C83.8377 15.3599 83.6487 15.4087 83.4779 15.5062C83.3133 15.5976 83.1822 15.7317 83.0846 15.9085C82.9931 16.0852 82.9474 16.2955 82.9474 16.5392V19.4554H81.9137Z" fill="black"/>
<path d="M87.7091 21.4758C87.5872 21.4758 87.4652 21.4636 87.3432 21.4392C87.2274 21.4209 87.1206 21.3904 87.0231 21.3478V20.461C87.0963 20.4793 87.1847 20.4945 87.2884 20.5067C87.392 20.525 87.4926 20.5342 87.5902 20.5342C87.8769 20.5342 88.0872 20.4702 88.2214 20.3422C88.3617 20.2203 88.4867 20.0283 88.5965 19.7663L88.9258 19.0166L88.9075 19.8851L86.7669 14.5098H87.8738L89.4563 18.6327H89.0813L90.6547 14.5098H91.7707L89.5844 19.9948C89.4685 20.2873 89.3222 20.5433 89.1453 20.7627C88.9746 20.9882 88.7703 21.1619 88.5324 21.2838C88.3007 21.4118 88.0263 21.4758 87.7091 21.4758Z" fill="black"/>
<path d="M93.7456 19.4554L96.1423 12.6449H97.4778L99.8745 19.4554H98.7219L98.2005 17.9288H95.4287L94.8982 19.4554H93.7456ZM95.7398 16.9689H97.8712L96.6637 13.4036H96.9656L95.7398 16.9689Z" fill="black"/>
<path d="M100.769 19.4554V12.6449H101.848V19.4554H100.769Z" fill="black"/>
<path d="M27.443 0H2.29423C1.02716 0 0 1.02716 0 2.29423V27.443C0 28.7101 1.02716 29.7372 2.29423 29.7372H27.443C28.7101 29.7372 29.7372 28.7101 29.7372 27.443V2.29423C29.7372 1.02716 28.7101 0 27.443 0Z" fill="#FFE3AC"/>
<path d="M4.27594 17.0058H10.6675H12.9192H14.8686V6.41309H10.6675V12.8047H4.27594V17.0058Z" fill="#487C7E"/>
<path d="M25.4622 12.7314H19.0706H16.8189H14.8695V23.3241H19.0706V16.9325H25.4622V12.7314Z" fill="#FFF9F0"/>
</svg>
