<svg width="124" height="28" viewBox="0 0 124 28" fill="none" xmlns="http://www.w3.org/2000/svg">
  <g clip-path="url(#clip0_11295_291)">
    <path d="M18.5852 6.10472L23.0195 13.7852L28.3023 10.7351L23.868 3.0547L18.5852 6.10472Z"
      fill="white" />
    <path d="M18.5854 0H9.7168V6.10004H18.5854V0Z" fill="white" />
    <path d="M18.5854 21.4119H9.7168V27.5119H18.5854V21.4119Z" fill="white" />
    <path d="M4.4343 3.05492L0 10.7354L5.28279 13.7854L9.71709 6.10494L4.4343 3.05492Z" fill="white" />
    <path d="M23.8684 24.5156L28.3027 16.8352L23.0199 13.7852L18.5856 21.4656L23.8684 24.5156Z"
      fill="white" />
    <path d="M9.7175 21.4656L5.2832 13.7852L0.000413238 16.8352L4.43471 24.5156L9.7175 21.4656Z"
      fill="white" />
    <path d="M18.5854 1.91479H9.7168V5.28811H18.5854V1.91479Z" fill="white" />
    <path d="M19.2825 5.70262L23.7168 13.3831L26.6382 11.6964L22.2039 4.01596L19.2825 5.70262Z"
      fill="white" />
    <path d="M18.5854 22.2234H9.7168V25.5967H18.5854V22.2234Z" fill="white" />
    <path d="M6.07727 4.0204L1.65039 11.688L4.57177 13.3746L8.99865 5.70706L6.07727 4.0204Z"
      fill="white" />
    <path d="M22.3979 23.6846L26.8398 15.991L23.7192 14.1893L19.2773 21.8829L22.3979 23.6846Z"
      fill="white" />
    <path d="M9.0028 21.8781L4.56641 14.1941L1.64503 15.8808L6.08142 23.5648L9.0028 21.8781Z"
      fill="white" />
    <path d="M18.5854 3.05005H9.7168V6.10007H18.5854V3.05005Z" fill="white" />
    <path
      d="M7.07512 4.57983L2.64062 12.2602L5.28215 13.7854L2.64062 15.3102L7.07512 22.9906L9.71664 21.4658L5.28215 13.7854L9.71664 6.10465L7.07512 4.57983Z"
      fill="white" />
    <path
      d="M25.8409 15.4141L23.0195 13.7854L25.661 12.2602L21.2265 4.57983L18.5854 6.10465L23.0195 13.7854L18.5854 21.4658V21.4118H9.7168V24.4614H18.5854V21.4658L21.4068 23.0949L25.8409 15.4141Z"
      fill="white" />
    <path d="M18.5852 6.10472L23.0195 13.7852L24.3401 13.0227L19.9058 5.34231L18.5852 6.10472Z"
      fill="white" />
    <path d="M18.5854 4.81445H9.7168V6.09965H18.5854V4.81445Z" fill="white" />
    <path d="M18.5854 21.4119H9.7168V22.9367H18.5854V21.4119Z" fill="white" />
    <path d="M8.39719 5.34203L3.96289 13.0225L5.28342 13.7849L9.71772 6.10444L8.39719 5.34203Z"
      fill="white" />
    <path d="M19.9954 22.28L24.4297 14.5996L23.0189 13.7851L18.5846 21.4655L19.9954 22.28Z"
      fill="white" />
    <path d="M9.7175 21.4656L5.2832 13.7852L3.96267 14.5476L8.39697 22.228L9.7175 21.4656Z"
      fill="white" />
  </g>
  <path d="M44.8479 8.97582V10.1176H41.6311V18.5601H40.3184V10.1176H37.1016V8.97582H44.8479Z"
    fill="white" />
  <path
    d="M51.8247 8.71484C53.51 8.71484 54.7577 9.25854 55.5679 10.3459C56.2004 11.1941 56.5167 12.2793 56.5167 13.6016C56.5167 15.0326 56.1549 16.2222 55.4314 17.1704C54.5822 18.2839 53.3713 18.8407 51.7987 18.8407C50.33 18.8407 49.1754 18.3535 48.3349 17.3792C47.5854 16.4397 47.2106 15.2523 47.2106 13.8169C47.2106 12.5207 47.5312 11.4116 48.1724 10.4895C48.9956 9.30639 50.213 8.71484 51.8247 8.71484ZM51.9546 17.6793C53.0941 17.6793 53.9172 17.2705 54.4241 16.4528C54.9353 15.6307 55.1909 14.6868 55.1909 13.6212C55.1909 12.4946 54.8963 11.5877 54.3071 10.9005C53.7223 10.2133 52.9208 9.86966 51.9026 9.86966C50.9149 9.86966 50.109 10.2111 49.4852 10.894C48.8613 11.5725 48.5494 12.5751 48.5494 13.9017C48.5494 14.963 48.8158 15.859 49.3487 16.5898C49.8859 17.3162 50.7546 17.6793 51.9546 17.6793Z"
    fill="white" />
  <path
    d="M60.0881 8.97582H64.3837C65.2329 8.97582 65.9174 9.21722 66.4373 9.70003C66.9572 10.1785 67.2171 10.8527 67.2171 11.7226C67.2171 12.4707 66.9853 13.1231 66.5218 13.6799C66.0582 14.2323 65.3455 14.5085 64.3837 14.5085H61.3813V18.5601H60.0881V8.97582ZM65.9109 11.7291C65.9109 11.0245 65.6509 10.546 65.1311 10.2937C64.8451 10.1589 64.453 10.0915 63.9548 10.0915H61.3813V13.4124H63.9548C64.5353 13.4124 65.0054 13.2884 65.365 13.0405C65.7289 12.7926 65.9109 12.3554 65.9109 11.7291Z"
    fill="white" />
  <path
    d="M71.5879 15.4676C71.6182 16.0113 71.746 16.4528 71.9713 16.792C72.4002 17.4271 73.1562 17.7446 74.2393 17.7446C74.7246 17.7446 75.1665 17.675 75.5651 17.5358C76.3362 17.2661 76.7218 16.7833 76.7218 16.0874C76.7218 15.5654 76.5593 15.1936 76.2344 14.9717C75.9052 14.7542 75.3896 14.565 74.6877 14.4041L73.3945 14.1105C72.5497 13.9191 71.9518 13.7082 71.6009 13.4776C70.9944 13.0775 70.6911 12.4794 70.6911 11.6834C70.6911 10.8222 70.9879 10.1154 71.5814 9.56301C72.1749 9.01062 73.0154 8.73442 74.1029 8.73442C75.1037 8.73442 75.9528 8.97799 76.6503 9.46515C77.3522 9.94795 77.7031 10.7222 77.7031 11.7878H76.4879C76.4229 11.2746 76.2842 10.8809 76.072 10.6069C75.6777 10.1067 75.0083 9.85661 74.0639 9.85661C73.3014 9.85661 72.7533 10.0175 72.4197 10.3394C72.0861 10.6613 71.9193 11.0353 71.9193 11.4616C71.9193 11.9314 72.1143 12.275 72.5042 12.4925C72.7598 12.6316 73.3382 12.8056 74.2393 13.0144L75.5781 13.3211C76.2236 13.4689 76.7218 13.6712 77.0727 13.9278C77.6793 14.3758 77.9825 15.0261 77.9825 15.8786C77.9825 16.9399 77.597 17.6989 76.8258 18.1556C76.059 18.6123 75.1665 18.8407 74.1484 18.8407C72.9613 18.8407 72.032 18.5362 71.3605 17.9273C70.6889 17.3227 70.3597 16.5028 70.3727 15.4676H71.5879Z"
    fill="white" />
  <path
    d="M85.5442 8.71484C86.7529 8.71484 87.6909 9.03454 88.3581 9.67393C89.0253 10.3133 89.3957 11.0397 89.4693 11.8531H88.2086C88.0656 11.2354 87.7797 10.7461 87.3508 10.3851C86.9262 10.0241 86.3283 9.84356 85.5572 9.84356C84.617 9.84356 83.8567 10.1763 83.2761 10.8418C82.6999 11.5029 82.4118 12.5186 82.4118 13.8887C82.4118 15.0109 82.6718 15.9221 83.1917 16.6224C83.7159 17.3183 84.4957 17.6663 85.5312 17.6663C86.4843 17.6663 87.21 17.2988 87.7082 16.5637C87.9725 16.1766 88.1696 15.6677 88.2996 15.037H89.5603C89.4477 16.0461 89.0751 16.8921 88.4425 17.575C87.6844 18.397 86.6619 18.8081 85.3752 18.8081C84.2661 18.8081 83.3346 18.471 82.5808 17.7968C81.5887 16.9051 81.0926 15.5285 81.0926 13.6668C81.0926 12.2532 81.4652 11.0941 82.2104 10.1894C83.0162 9.20635 84.1275 8.71484 85.5442 8.71484Z"
    fill="white" />
  <path
    d="M97.1609 8.71484C98.8462 8.71484 100.094 9.25854 100.904 10.3459C101.537 11.1941 101.853 12.2793 101.853 13.6016C101.853 15.0326 101.491 16.2222 100.768 17.1704C99.9185 18.2839 98.7076 18.8407 97.1349 18.8407C95.6662 18.8407 94.5116 18.3535 93.6712 17.3792C92.9216 16.4397 92.5469 15.2523 92.5469 13.8169C92.5469 12.5207 92.8675 11.4116 93.5087 10.4895C94.3318 9.30639 95.5493 8.71484 97.1609 8.71484ZM97.2909 17.6793C98.4303 17.6793 99.2535 17.2705 99.7604 16.4528C100.272 15.6307 100.527 14.6868 100.527 13.6212C100.527 12.4946 100.233 11.5877 99.6434 10.9005C99.0585 10.2133 98.257 9.86966 97.2389 9.86966C96.2511 9.86966 95.4453 10.2111 94.8214 10.894C94.1975 11.5725 93.8856 12.5751 93.8856 13.9017C93.8856 14.963 94.1521 15.859 94.6849 16.5898C95.2222 17.3162 96.0908 17.6793 97.2909 17.6793Z"
    fill="white" />
  <path
    d="M109.739 13.3667C110.346 13.3667 110.825 13.2449 111.176 13.0014C111.531 12.7578 111.709 12.3185 111.709 11.6834C111.709 11.0006 111.462 10.5351 110.968 10.2872C110.703 10.1567 110.35 10.0915 109.908 10.0915H106.75V13.3667H109.739ZM105.457 8.97582H109.876C110.604 8.97582 111.204 9.08238 111.676 9.29551C112.573 9.70437 113.021 10.459 113.021 11.5595C113.021 12.1336 112.902 12.6034 112.664 12.9687C112.43 13.3341 112.101 13.6277 111.676 13.8495C112.049 14.0018 112.328 14.2018 112.514 14.4498C112.705 14.6977 112.811 15.1 112.833 15.6568L112.878 16.9421C112.891 17.3075 112.922 17.5793 112.969 17.7576C113.047 18.0621 113.186 18.2578 113.385 18.3448V18.5601H111.8C111.756 18.4775 111.722 18.3709 111.696 18.2404C111.67 18.11 111.648 17.8577 111.631 17.4836L111.553 15.8851C111.522 15.2588 111.29 14.8391 110.857 14.6259C110.61 14.5085 110.223 14.4498 109.694 14.4498H106.75V18.5601H105.457V8.97582Z"
    fill="white" />
  <path
    d="M116.944 8.97582H123.904V10.1502H118.204V13.0601H123.475V14.1692H118.204V17.4184H124.001V18.5601H116.944V8.97582Z"
    fill="white" />
  <defs>
    <clipPath id="clip0_11295_291">
      <rect width="28.3025" height="27.5118" fill="white" />
    </clipPath>
  </defs>
</svg>