<svg width="60" height="52" viewBox="0 0 60 52" fill="none" xmlns="http://www.w3.org/2000/svg">
  <rect width="60" height="52" rx="8" fill="#357E7F" />
  <path
    d="M8.981 39V31.7273H11.7083C12.267 31.7273 12.7357 31.8243 13.1145 32.0185C13.4957 32.2126 13.7833 32.4848 13.9775 32.8352C14.1739 33.1832 14.2722 33.5893 14.2722 34.0533C14.2722 34.5196 14.1728 34.9245 13.9739 35.2678C13.7774 35.6087 13.4874 35.8726 13.1039 36.0597C12.7203 36.2443 12.2492 36.3366 11.6905 36.3366H9.74805V35.2429H11.513C11.8397 35.2429 12.1072 35.1979 12.3155 35.108C12.5239 35.0156 12.6777 34.8819 12.7772 34.7067C12.879 34.5291 12.9299 34.3113 12.9299 34.0533C12.9299 33.7952 12.879 33.575 12.7772 33.3928C12.6754 33.2081 12.5203 33.0684 12.312 32.9737C12.1036 32.8767 11.8349 32.8281 11.5059 32.8281H10.2985V39H8.981ZM12.7381 35.7045L14.5385 39H13.0684L11.2999 35.7045H12.7381ZM16.9977 39.1101C16.652 39.1101 16.3407 39.0485 16.0637 38.9254C15.7891 38.8 15.5713 38.6153 15.4103 38.3714C15.2517 38.1276 15.1724 37.8269 15.1724 37.4695C15.1724 37.1617 15.2292 36.9072 15.3429 36.706C15.4565 36.5047 15.6116 36.3438 15.8081 36.223C16.0046 36.1023 16.2259 36.0111 16.4721 35.9496C16.7207 35.8857 16.9776 35.8395 17.2427 35.8111C17.5623 35.7779 17.8216 35.7483 18.0204 35.7223C18.2193 35.6939 18.3637 35.6513 18.4537 35.5945C18.546 35.5353 18.5922 35.4441 18.5922 35.321V35.2997C18.5922 35.0322 18.5128 34.825 18.3542 34.6783C18.1956 34.5315 17.9672 34.4581 17.6689 34.4581C17.354 34.4581 17.1042 34.5268 16.9196 34.6641C16.7373 34.8014 16.6142 34.9635 16.5502 35.1506L15.35 34.9801C15.4447 34.6487 15.6009 34.3717 15.8187 34.1491C16.0365 33.9242 16.3029 33.7562 16.6177 33.6449C16.9326 33.5312 17.2806 33.4744 17.6618 33.4744C17.9245 33.4744 18.1861 33.5052 18.4466 33.5668C18.707 33.6283 18.9449 33.7301 19.1603 33.8722C19.3758 34.0118 19.5486 34.2024 19.6788 34.4439C19.8114 34.6854 19.8777 34.9872 19.8777 35.3494V39H18.6419V38.2507H18.5993C18.5211 38.4022 18.411 38.5443 18.269 38.6768C18.1293 38.8071 17.9529 38.9124 17.7399 38.9929C17.5292 39.071 17.2818 39.1101 16.9977 39.1101ZM17.3315 38.1655C17.5895 38.1655 17.8133 38.1146 18.0027 38.0128C18.1921 37.9086 18.3377 37.7713 18.4395 37.6009C18.5436 37.4304 18.5957 37.2446 18.5957 37.0433V36.4006C18.5555 36.4337 18.4868 36.4645 18.3897 36.4929C18.295 36.5213 18.1885 36.5462 18.0701 36.5675C17.9518 36.5888 17.8346 36.6077 17.7186 36.6243C17.6026 36.6409 17.502 36.6551 17.4167 36.6669C17.225 36.6929 17.0533 36.7356 16.9018 36.7947C16.7503 36.8539 16.6307 36.9368 16.5431 37.0433C16.4556 37.1475 16.4118 37.2824 16.4118 37.4482C16.4118 37.6849 16.4982 37.8636 16.671 37.9844C16.8438 38.1051 17.064 38.1655 17.3315 38.1655ZM22.4558 35.804V39H21.1703V33.5455H22.399V34.4723H22.4629C22.5884 34.1669 22.7884 33.9242 23.063 33.7443C23.34 33.5644 23.6821 33.4744 24.0893 33.4744C24.4657 33.4744 24.7936 33.5549 25.073 33.7159C25.3547 33.8769 25.5725 34.1101 25.7264 34.4155C25.8826 34.7209 25.9596 35.0914 25.9572 35.527V39H24.6717V35.7259C24.6717 35.3613 24.577 35.076 24.3876 34.87C24.2006 34.6641 23.9413 34.5611 23.6099 34.5611C23.385 34.5611 23.185 34.6108 23.0098 34.7102C22.8369 34.8073 22.7008 34.9482 22.6014 35.1328C22.5043 35.3175 22.4558 35.5412 22.4558 35.804ZM28.4359 37.2884L28.4324 35.7365H28.6383L30.5985 33.5455H32.1007L29.6895 36.2301H29.4231L28.4359 37.2884ZM27.264 39V31.7273H28.5495V39H27.264ZM30.6873 39L28.9118 36.5178L29.7782 35.6122L32.225 39H30.6873ZM32.9574 39V33.5455H34.2429V39H32.9574ZM33.6037 32.7713C33.4001 32.7713 33.2249 32.7038 33.0781 32.5689C32.9313 32.4316 32.858 32.267 32.858 32.0753C32.858 31.8812 32.9313 31.7166 33.0781 31.5817C33.2249 31.4444 33.4001 31.3757 33.6037 31.3757C33.8097 31.3757 33.9848 31.4444 34.1293 31.5817C34.276 31.7166 34.3494 31.8812 34.3494 32.0753C34.3494 32.267 34.276 32.4316 34.1293 32.5689C33.9848 32.7038 33.8097 32.7713 33.6037 32.7713ZM36.8503 35.804V39H35.5648V33.5455H36.7935V34.4723H36.8574C36.9829 34.1669 37.1829 33.9242 37.4576 33.7443C37.7346 33.5644 38.0766 33.4744 38.4838 33.4744C38.8603 33.4744 39.1882 33.5549 39.4675 33.7159C39.7492 33.8769 39.967 34.1101 40.1209 34.4155C40.2772 34.7209 40.3541 35.0914 40.3517 35.527V39H39.0662V35.7259C39.0662 35.3613 38.9715 35.076 38.7821 34.87C38.5951 34.6641 38.3359 34.5611 38.0044 34.5611C37.7795 34.5611 37.5795 34.6108 37.4043 34.7102C37.2315 34.8073 37.0953 34.9482 36.9959 35.1328C36.8989 35.3175 36.8503 35.5412 36.8503 35.804ZM44.0307 41.1591C43.5691 41.1591 43.1725 41.0964 42.8411 40.9709C42.5096 40.8478 42.2433 40.6821 42.0421 40.4737C41.8408 40.2654 41.7012 40.0346 41.623 39.7812L42.7807 39.5007C42.8328 39.6072 42.9086 39.7126 43.008 39.8168C43.1074 39.9233 43.2412 40.0109 43.4093 40.0795C43.5797 40.1506 43.794 40.1861 44.052 40.1861C44.4166 40.1861 44.7185 40.0973 44.9576 39.9197C45.1967 39.7446 45.3162 39.4557 45.3162 39.0533V38.0199H45.2523C45.186 38.1525 45.089 38.2886 44.9611 38.4283C44.8356 38.5679 44.6687 38.6851 44.4604 38.7798C44.2544 38.8745 43.9952 38.9219 43.6827 38.9219C43.2637 38.9219 42.8837 38.8236 42.5428 38.6271C42.2042 38.4283 41.9344 38.1323 41.7331 37.7393C41.5343 37.344 41.4348 36.8492 41.4348 36.255C41.4348 35.656 41.5343 35.1506 41.7331 34.7386C41.9344 34.3243 42.2054 34.0107 42.5463 33.7976C42.8873 33.5821 43.2672 33.4744 43.6863 33.4744C44.0059 33.4744 44.2686 33.5289 44.4746 33.6378C44.6829 33.7443 44.8487 33.8733 44.9718 34.0249C45.0949 34.174 45.1884 34.3149 45.2523 34.4474H45.3233V33.5455H46.5911V39.0888C46.5911 39.5552 46.4798 39.9411 46.2573 40.2464C46.0347 40.5518 45.7305 40.7803 45.3446 40.9318C44.9587 41.0833 44.5208 41.1591 44.0307 41.1591ZM44.0414 37.9134C44.3136 37.9134 44.5456 37.8471 44.7374 37.7145C44.9292 37.5819 45.0748 37.3913 45.1742 37.1428C45.2736 36.8942 45.3233 36.5959 45.3233 36.2479C45.3233 35.9046 45.2736 35.6039 45.1742 35.3459C45.0771 35.0878 44.9327 34.8878 44.7409 34.7457C44.5516 34.6013 44.3184 34.5291 44.0414 34.5291C43.7549 34.5291 43.5158 34.6037 43.324 34.7528C43.1323 34.902 42.9879 35.1068 42.8908 35.3672C42.7937 35.6252 42.7452 35.9188 42.7452 36.2479C42.7452 36.5817 42.7937 36.8741 42.8908 37.125C42.9902 37.3736 43.1358 37.5677 43.3276 37.7074C43.5217 37.8447 43.7596 37.9134 44.0414 37.9134ZM52.2196 34.9872L51.0478 35.1151C51.0146 34.9967 50.9566 34.8854 50.8738 34.7812C50.7933 34.6771 50.6844 34.593 50.5471 34.5291C50.4097 34.4652 50.2417 34.4332 50.0428 34.4332C49.7753 34.4332 49.5504 34.4912 49.3681 34.6072C49.1882 34.7232 49.0994 34.8736 49.1017 35.0582C49.0994 35.2169 49.1574 35.3459 49.2757 35.4453C49.3965 35.5447 49.5953 35.6264 49.8723 35.6903L50.8027 35.8892C51.3188 36.0005 51.7024 36.1768 51.9533 36.4183C52.2066 36.6598 52.3345 36.9759 52.3368 37.3665C52.3345 37.7098 52.2338 38.0128 52.035 38.2756C51.8385 38.536 51.565 38.7396 51.2147 38.8864C50.8643 39.0331 50.4618 39.1065 50.0073 39.1065C49.3397 39.1065 48.8023 38.9669 48.3951 38.6875C47.9879 38.4058 47.7452 38.014 47.6671 37.5121L48.9206 37.3913C48.9775 37.6375 49.0982 37.8234 49.2828 37.9489C49.4675 38.0743 49.7078 38.1371 50.0037 38.1371C50.3091 38.1371 50.5542 38.0743 50.7388 37.9489C50.9258 37.8234 51.0194 37.6683 51.0194 37.4837C51.0194 37.3274 50.959 37.1984 50.8382 37.0966C50.7199 36.9948 50.5352 36.9167 50.2843 36.8622L49.3539 36.6669C48.8307 36.558 48.4436 36.3745 48.1926 36.1165C47.9417 35.8561 47.8174 35.527 47.8198 35.1293C47.8174 34.7931 47.9086 34.5019 48.0932 34.2557C48.2802 34.0071 48.5395 33.8153 48.8709 33.6804C49.2047 33.5431 49.5894 33.4744 50.025 33.4744C50.6642 33.4744 51.1673 33.6106 51.5343 33.8828C51.9036 34.1551 52.132 34.5232 52.2196 34.9872Z"
    fill="white" />
  <path
    d="M24.0002 16.9995H26.0007C26.5522 16.9995 27.0009 17.4465 27.0009 17.9998V22.0007C27.0009 22.5522 26.554 23.0009 26.0007 23.0009H24.0002C23.4487 23.0009 23 22.554 23 22.0007V17.9998C23 17.4465 23.4469 16.9995 24.0002 16.9995ZM29.9998 12.9986H32.0002C32.5517 12.9986 33.0005 13.4456 33.0005 13.9989V21.9989C33.0005 22.5504 32.5535 22.9991 32.0002 22.9991H29.9998C29.4483 22.9991 28.9995 22.5522 28.9995 21.9989V13.9989C28.9995 13.4474 29.4483 12.9986 29.9998 12.9986ZM35.9993 11H37.9998C38.5513 11 39 11.3839 39 11.8579V22.1449C39 22.617 38.5513 23.0009 37.9998 23.0009H35.9993C35.4478 23.0009 34.9991 22.617 34.9991 22.1449V11.856C35.0009 11.3839 35.4478 11 35.9993 11ZM24.0002 23.9993H37.9998C38.5513 23.9993 39 24.4463 39 24.9996V25.9998C39 26.5513 38.5531 27 37.9998 27H24.0002C23.4487 27 23 26.5531 23 25.9998V24.9996C23 24.4463 23.4469 23.9993 24.0002 23.9993Z"
    fill="white" />
</svg>